<svg width="90" height="115" viewBox="0 0 90 115" fill="none" xmlns="http://www.w3.org/2000/svg">
<rect x="0.75" y="0.75" width="88.5" height="88.5" rx="3.25" stroke="#456054" style="stroke:#456054;stroke:color(display-p3 0.2706 0.3765 0.3294);stroke-opacity:1;" stroke-width="1.5"/>
<path d="M53.6907 68.9103C53.5955 68.9103 53.5002 68.8967 53.4117 68.8558C52.9966 68.6993 52.7925 68.2366 52.949 67.8283L65.9465 33.6265C65.8716 22.0172 56.3991 12.5924 44.7694 12.5924C33.1397 12.5924 23.6672 22.0172 23.5924 33.6265L36.5898 67.8283C36.7464 68.2434 36.5422 68.6993 36.1271 68.8558C35.712 69.0124 35.2561 68.8082 35.0996 68.3931L22.0544 34.0552C22.0204 33.9668 22 33.8715 22 33.7762C22 21.2211 32.2143 11 44.7762 11C57.3382 11 67.5457 21.2143 67.5457 33.7762C67.5457 33.8715 67.5252 33.9668 67.4912 34.0552L54.4393 68.3931C54.3168 68.7129 54.0174 68.9035 53.6975 68.9035L53.6907 68.9103Z" fill="#456054" style="fill:#456054;fill:color(display-p3 0.2706 0.3765 0.3294);fill-opacity:1;"/>
<path d="M34.4667 41.4386C34.0312 41.4386 33.6705 41.0847 33.6705 40.6424C33.6705 37.866 29.4787 35.2597 26.2259 35.2597C25.348 35.2597 24.477 35.4774 23.7012 35.8925C23.3134 36.0967 22.8302 35.9538 22.6261 35.5659C22.4219 35.178 22.5648 34.6949 22.9527 34.4907C23.953 33.9531 25.0826 33.6741 26.2259 33.6741C29.8665 33.6741 35.2629 36.6003 35.2629 40.6492C35.2629 41.0847 34.9022 41.4386 34.4667 41.4386Z" fill="#456054" style="fill:#456054;fill:color(display-p3 0.2706 0.3765 0.3294);fill-opacity:1;"/>
<path d="M39.9584 68.9103C39.5841 68.9103 39.2506 68.6517 39.1826 68.2706L33.691 40.799C33.6774 40.7513 33.6774 40.6969 33.6774 40.6425C33.6774 36.7976 36.8077 33.6674 40.6525 33.6674C45.5725 33.6674 45.5725 38.7371 45.5725 40.6425C45.5725 41.078 45.2186 41.4386 44.7763 41.4386C44.3339 41.4386 43.9801 41.0848 43.9801 40.6425C43.9801 36.1716 42.6531 35.2597 40.6525 35.2597C37.7127 35.2597 35.3106 37.6347 35.2697 40.5676L40.7477 67.9576C40.8294 68.3863 40.5504 68.8082 40.1217 68.8967C40.0672 68.9103 40.0128 68.9171 39.9652 68.9171L39.9584 68.9103Z" fill="#456054" style="fill:#456054;fill:color(display-p3 0.2706 0.3765 0.3294);fill-opacity:1;"/>
<path d="M49.5737 68.9103C49.5193 68.9103 49.4717 68.9103 49.4172 68.8967C48.9885 68.815 48.7095 68.3931 48.7912 67.9576L54.2692 40.5608C54.344 36.5595 59.6927 33.6674 63.3062 33.6674C64.4494 33.6674 65.579 33.9464 66.5794 34.484C66.9672 34.6881 67.1169 35.1713 66.906 35.5591C66.7018 35.947 66.2187 36.0967 65.8308 35.8858C65.0618 35.4707 64.1908 35.2529 63.3062 35.2529C60.0534 35.2529 55.8615 37.866 55.8615 40.6356C55.8615 40.6901 55.8615 40.7377 55.8479 40.7922L50.3563 68.2638C50.2815 68.6449 49.948 68.9035 49.5805 68.9035L49.5737 68.9103Z" fill="#456054" style="fill:#456054;fill:color(display-p3 0.2706 0.3765 0.3294);fill-opacity:1;"/>
<path d="M44.7694 68.9103C44.3339 68.9103 43.9733 68.5564 43.9733 68.1141V40.6425C43.9733 38.7371 43.9733 33.6674 48.8933 33.6674C52.7381 33.6674 55.8683 36.7976 55.8683 40.6425C55.8683 41.078 55.5145 41.4386 55.0722 41.4386C54.6298 41.4386 54.276 41.0848 54.276 40.6425C54.276 37.6755 51.8602 35.2597 48.8933 35.2597C46.8994 35.2597 45.5656 36.1716 45.5656 40.6425V68.1141C45.5656 68.5496 45.205 68.9103 44.7626 68.9103H44.7694Z" fill="#456054" style="fill:#456054;fill:color(display-p3 0.2706 0.3765 0.3294);fill-opacity:1;"/>
<path d="M53.6908 78.5257H35.8345C35.399 78.5257 35.0383 78.1719 35.0383 77.7295V68.1141C35.0383 67.6786 35.3922 67.3179 35.8345 67.3179C36.2768 67.3179 36.6307 67.6718 36.6307 68.1141V76.9334H52.8946V68.1141C52.8946 67.6786 53.2484 67.3179 53.6908 67.3179C54.1331 67.3179 54.4869 67.6718 54.4869 68.1141V77.7295C54.4869 78.1651 54.1331 78.5257 53.6976 78.5257H53.6908Z" fill="#456054" style="fill:#456054;fill:color(display-p3 0.2706 0.3765 0.3294);fill-opacity:1;"/>
<path d="M59.8764 68.9103H29.6556C29.22 68.9103 28.8594 68.5564 28.8594 68.1141C28.8594 67.6718 29.2132 67.3179 29.6556 67.3179H59.8696C60.3051 67.3179 60.6658 67.6718 60.6658 68.1141C60.6658 68.5496 60.3119 68.9103 59.8764 68.9103Z" fill="#456054" style="fill:#456054;fill:color(display-p3 0.2706 0.3765 0.3294);fill-opacity:1;"/>
<path d="M24.6506 112H23.358L27.0966 101.818H28.3693L32.108 112H30.8153L27.7727 103.429H27.6932L24.6506 112ZM25.1278 108.023H30.3381V109.116H25.1278V108.023ZM36.7365 112.159C36.0007 112.159 35.366 111.997 34.8324 111.672C34.3021 111.344 33.8928 110.886 33.6044 110.3C33.3194 109.71 33.1768 109.024 33.1768 108.241C33.1768 107.459 33.3194 106.77 33.6044 106.173C33.8928 105.573 34.2938 105.106 34.8075 104.771C35.3246 104.433 35.9278 104.264 36.6172 104.264C37.0149 104.264 37.4077 104.33 37.7955 104.463C38.1832 104.596 38.5362 104.811 38.8544 105.109C39.1726 105.404 39.4261 105.795 39.6151 106.283C39.804 106.77 39.8984 107.37 39.8984 108.082V108.58H34.0121V107.565H38.7053C38.7053 107.134 38.6191 106.75 38.4467 106.412C38.2777 106.074 38.0357 105.807 37.7209 105.612C37.4093 105.416 37.0414 105.318 36.6172 105.318C36.1499 105.318 35.7455 105.434 35.4041 105.666C35.0661 105.895 34.8059 106.193 34.6236 106.561C34.4413 106.929 34.3501 107.323 34.3501 107.744V108.42C34.3501 108.997 34.4496 109.486 34.6484 109.887C34.8506 110.285 35.1307 110.588 35.4886 110.797C35.8466 111.002 36.2625 111.105 36.7365 111.105C37.0447 111.105 37.3232 111.062 37.5717 110.976C37.8236 110.886 38.0407 110.754 38.223 110.578C38.4053 110.399 38.5462 110.177 38.6456 109.912L39.7791 110.23C39.6598 110.615 39.4593 110.953 39.1776 111.244C38.8958 111.533 38.5478 111.758 38.1335 111.92C37.7192 112.08 37.2536 112.159 36.7365 112.159ZM36.0206 103.33L37.2337 101.023H38.6058L37.0547 103.33H36.0206ZM41.6832 112V104.364H42.8168V105.517H42.8963C43.0355 105.139 43.2874 104.833 43.652 104.597C44.0166 104.362 44.4276 104.244 44.8849 104.244C44.9711 104.244 45.0788 104.246 45.2081 104.249C45.3374 104.253 45.4351 104.258 45.5014 104.264V105.457C45.4616 105.447 45.3705 105.433 45.228 105.413C45.0888 105.389 44.9413 105.378 44.7855 105.378C44.4143 105.378 44.0829 105.456 43.7912 105.612C43.5028 105.764 43.2741 105.976 43.1051 106.248C42.9394 106.516 42.8565 106.823 42.8565 107.168V112H41.6832ZM46.8922 112V104.364H48.0655V112H46.8922ZM47.4888 103.091C47.2601 103.091 47.0629 103.013 46.8972 102.857C46.7348 102.701 46.6536 102.514 46.6536 102.295C46.6536 102.077 46.7348 101.889 46.8972 101.734C47.0629 101.578 47.2601 101.5 47.4888 101.5C47.7175 101.5 47.9131 101.578 48.0755 101.734C48.2412 101.889 48.324 102.077 48.324 102.295C48.324 102.514 48.2412 102.701 48.0755 102.857C47.9131 103.013 47.7175 103.091 47.4888 103.091ZM53.4162 112.159C52.6804 112.159 52.0457 111.997 51.5121 111.672C50.9818 111.344 50.5724 110.886 50.2841 110.3C49.9991 109.71 49.8565 109.024 49.8565 108.241C49.8565 107.459 49.9991 106.77 50.2841 106.173C50.5724 105.573 50.9735 105.106 51.4872 104.771C52.0043 104.433 52.6075 104.264 53.2969 104.264C53.6946 104.264 54.0874 104.33 54.4751 104.463C54.8629 104.596 55.2159 104.811 55.5341 105.109C55.8523 105.404 56.1058 105.795 56.2947 106.283C56.4837 106.77 56.5781 107.37 56.5781 108.082V108.58H50.6918V107.565H55.3849C55.3849 107.134 55.2988 106.75 55.1264 106.412C54.9574 106.074 54.7154 105.807 54.4006 105.612C54.089 105.416 53.7211 105.318 53.2969 105.318C52.8295 105.318 52.4252 105.434 52.0838 105.666C51.7457 105.895 51.4856 106.193 51.3033 106.561C51.121 106.929 51.0298 107.323 51.0298 107.744V108.42C51.0298 108.997 51.1293 109.486 51.3281 109.887C51.5303 110.285 51.8104 110.588 52.1683 110.797C52.5263 111.002 52.9422 111.105 53.4162 111.105C53.7244 111.105 54.0028 111.062 54.2514 110.976C54.5033 110.886 54.7204 110.754 54.9027 110.578C55.085 110.399 55.2259 110.177 55.3253 109.912L56.4588 110.23C56.3395 110.615 56.139 110.953 55.8572 111.244C55.5755 111.533 55.2275 111.758 54.8132 111.92C54.3989 112.08 53.9332 112.159 53.4162 112.159ZM59.5362 107.406V112H58.3629V104.364H59.4964V105.557H59.5959C59.7749 105.169 60.0466 104.857 60.4112 104.622C60.7758 104.384 61.2464 104.264 61.8232 104.264C62.3402 104.264 62.7926 104.37 63.1804 104.582C63.5682 104.791 63.8698 105.109 64.0852 105.537C64.3007 105.961 64.4084 106.498 64.4084 107.148V112H63.2351V107.227C63.2351 106.627 63.0793 106.16 62.7678 105.825C62.4562 105.487 62.0286 105.318 61.4851 105.318C61.1106 105.318 60.7758 105.399 60.4808 105.562C60.1892 105.724 59.9588 105.961 59.7898 106.273C59.6207 106.584 59.5362 106.962 59.5362 107.406Z" fill="#456054" style="fill:#456054;fill:color(display-p3 0.2706 0.3765 0.3294);fill-opacity:1;"/>
</svg>
