<svg width="140" height="57" viewBox="0 0 140 57" fill="none" xmlns="http://www.w3.org/2000/svg">
<path d="M76.2465 50.3059L74.0182 34.6019H71.3042L74.6202 55.1811H77.8834L81.1994 34.6019H78.4853L76.2465 50.3059Z" fill="#F9F2E8" style="fill:#F9F2E8;fill:color(display-p3 0.9765 0.9490 0.9098);fill-opacity:1;"/>
<path d="M82.4877 55.1811H89.2992V52.6854H85.2334V45.8327H88.8451V43.3475H85.2334V37.0976H89.2992V34.6019H82.4877V55.1811Z" fill="#F9F2E8" style="fill:#F9F2E8;fill:color(display-p3 0.9765 0.9490 0.9098);fill-opacity:1;"/>
<path d="M96.9661 44.5425L94.0198 34.6019H91.274V55.1811H94.0198V41.7084L96.9661 51.0779V55.1811H99.7119V34.6019H96.9661V44.5425Z" fill="#F9F2E8" style="fill:#F9F2E8;fill:color(display-p3 0.9765 0.9490 0.9098);fill-opacity:1;"/>
<path d="M101.285 37.0976H103.915V55.1811H106.671V37.0976H109.301V34.6019H101.285V37.0976Z" fill="#F9F2E8" style="fill:#F9F2E8;fill:color(display-p3 0.9765 0.9490 0.9098);fill-opacity:1;"/>
<path d="M117.052 51.3423C117.052 52.2412 116.683 52.6854 115.933 52.6854H114.813C114.011 52.6854 113.609 52.2412 113.609 51.3423V34.6124H110.864V51.2577C110.864 53.8698 111.962 55.1811 114.159 55.1811H116.471C118.678 55.1811 119.787 53.8803 119.787 51.2894V34.6124H117.042V51.3423H117.052Z" fill="#F9F2E8" style="fill:#F9F2E8;fill:color(display-p3 0.9765 0.9490 0.9098);fill-opacity:1;"/>
<path d="M130.897 43.1995V38.1234C130.897 35.7757 129.851 34.6019 127.75 34.6019H122.375V55.1705H125.12V46.8585H126.778L128.584 55.1705H131.193L129.271 46.6046C130.358 46.1288 130.897 44.9867 130.897 43.1995ZM128.151 43.0303C128.151 44.0243 127.739 44.5213 126.916 44.5213H125.11V37.0976H126.916C127.739 37.0976 128.151 37.5946 128.151 38.5887V43.0303Z" fill="#F9F2E8" style="fill:#F9F2E8;fill:color(display-p3 0.9765 0.9490 0.9098);fill-opacity:1;"/>
<path d="M140 37.0976V34.6019H133.188V55.1811H140V52.6854H135.934V45.8327H139.546V43.3475H135.934V37.0976H140Z" fill="#F9F2E8" style="fill:#F9F2E8;fill:color(display-p3 0.9765 0.9490 0.9098);fill-opacity:1;"/>
<path d="M79.7843 22.7154L80.6714 5.63656C80.7875 3.2783 79.7632 2.10446 77.5983 2.10446H75.5918C73.4269 2.10446 72.2969 3.2783 72.1808 5.63656L71.2937 22.7154H73.9866L74.3562 15.1648H77.4504L77.0808 22.7154H79.7737H79.7843ZM74.5146 12.669L74.8843 5.80576C74.9265 5.00205 75.3278 4.60019 76.1198 4.60019H76.8696C77.6511 4.60019 78.0313 5.00205 77.989 5.80576L77.6194 12.669H74.5252H74.5146Z" fill="#F9F2E8" style="fill:#F9F2E8;fill:color(display-p3 0.9765 0.9490 0.9098);fill-opacity:1;"/>
<path d="M84.8638 22.7154L85.9199 2.10446H83.2269L82.1709 22.7154H84.8638Z" fill="#F9F2E8" style="fill:#F9F2E8;fill:color(display-p3 0.9765 0.9490 0.9098);fill-opacity:1;"/>
<path d="M93.7241 2.10445H88.4439L87.3878 22.7154H90.0807L90.5137 14.3928H92.1506L93.5023 22.7154H96.058L94.6006 14.1284C95.7095 13.6525 96.3114 12.5104 96.4064 10.7126L96.6599 5.62597C96.7761 3.26771 95.8045 2.09387 93.7347 2.09387L93.7241 2.10445ZM93.9247 6.09127L93.6924 10.5434C93.6396 11.5375 93.2066 12.0345 92.404 12.0345H90.6299L91.0312 4.60018H92.8053C93.6079 4.60018 93.9775 5.09721 93.9247 6.09127Z" fill="#F9F2E8" style="fill:#F9F2E8;fill:color(display-p3 0.9765 0.9490 0.9098);fill-opacity:1;"/>
<path d="M70.7867 29.7373H95.8467L96.0051 26.9878H70.9452L70.7867 29.7373Z" fill="#F9F2E8" style="fill:#F9F2E8;fill:color(display-p3 0.9765 0.9490 0.9098);fill-opacity:1;"/>
<path d="M61.1979 0H0V57H61.1979V0ZM59.4448 23.7835H38.514V18.6228C39.2849 18.9929 40.1297 19.1833 41.0274 19.1833C42.6854 19.1727 44.2378 18.443 45.3783 17.1529L45.505 17.0154C46.3182 16.1059 47.3953 15.5878 48.5359 15.5772C49.6658 15.556 50.7641 16.0319 51.5878 16.9096L52.1053 17.449C53.2564 18.6545 54.7665 19.3208 56.3612 19.3208C56.3717 19.3208 56.3928 19.3208 56.414 19.3208C57.5017 19.3208 58.5366 18.9929 59.4448 18.4113V23.7835ZM36.7715 44.5319L24.6164 31.5351C26.6229 30.1074 27.9324 27.9501 28.2809 25.539H36.7715V44.5319ZM19.3996 16.9837C23.3914 16.9837 26.6335 20.2302 26.6335 24.2276C26.6335 26.6705 25.4296 28.9019 23.4125 30.2555L19.7797 26.3744L15.8724 30.5516C13.5913 29.272 12.1762 26.8609 12.1762 24.2382C12.1762 20.2408 15.4183 16.9942 19.4101 16.9942L19.3996 16.9837ZM10.4232 23.7941H1.75304V7.76215L12.4719 18.4959C11.2786 19.9447 10.5182 21.7848 10.4232 23.7835V23.7941ZM1.75304 25.539H10.5182C10.8984 28.1299 12.398 30.4352 14.6368 31.8417L1.75304 45.6317V25.539ZM19.7692 28.923L30.5092 40.4076L25.7147 44.7857L19.125 38.7579L12.8626 44.4896L8.74406 40.7249L19.7797 28.9336L19.7692 28.923ZM28.3654 23.7835C28.2809 22.0809 27.7318 20.4946 26.8236 19.1727L36.7715 9.21095V17.1211L36.6554 17.2269C36.6554 17.2269 36.7398 17.3009 36.7715 17.3432V23.7729H28.3654V23.7835ZM59.4448 16.1482L59.4131 16.1905C58.6 17.0788 57.5334 17.5653 56.4034 17.5759C55.2418 17.5759 54.1963 17.1106 53.3831 16.2434L52.8657 15.7041C51.6934 14.4668 50.1516 13.8111 48.5147 13.8323C46.8779 13.864 45.3466 14.5831 44.2061 15.8627L44.0794 16.0002C43.2662 16.9202 42.1785 17.4278 41.0168 17.4384H40.9851C40.0981 17.4384 39.2427 17.1317 38.5246 16.5818V9.97236C39.2955 10.3425 40.1192 10.5328 40.9851 10.5328C41.0063 10.5328 41.0168 10.5328 41.0379 10.5328C42.6959 10.5223 44.2483 9.79258 45.3889 8.50241L45.5156 8.36493C46.3287 7.45547 47.4059 6.93729 48.5464 6.92672C48.5676 6.92672 48.5887 6.92672 48.6098 6.92672C49.7292 6.92672 50.7852 7.39202 51.5984 8.25918L52.1159 8.79851C53.267 10.0041 54.7771 10.6703 56.3717 10.6703H56.4245C57.5123 10.6703 58.5472 10.3425 59.4554 9.76085V16.1482H59.4448ZM59.4448 7.49777L59.4131 7.54007C58.6 8.42839 57.5334 8.91484 56.4034 8.92542H56.3717C55.2523 8.92542 54.1963 8.44954 53.3831 7.59295L52.8657 7.05362C51.6934 5.81633 50.1516 5.17124 48.5147 5.18182C46.8779 5.21354 45.3466 5.93265 44.2061 7.21224L44.0794 7.34972C43.2662 8.26976 42.1785 8.77737 41.0168 8.78794C40.1086 8.80909 39.2532 8.50241 38.5246 7.93135V7.46605L38.6196 7.37087L38.5246 7.2757V1.75547H59.4554V7.49777H59.4448ZM36.7715 6.73636L25.7042 17.8191C24.2785 16.4126 22.3776 15.4714 20.2761 15.2705V1.75547H36.7715V6.74694V6.73636ZM1.75304 1.75547H18.523V15.2811C16.7066 15.4609 15.0487 16.18 13.7075 17.2798L1.75304 5.28757V1.75547ZM1.75304 48.0957L1.79528 48.138L7.54017 41.9939L12.8521 46.8584L19.1144 41.1267L25.7042 47.1545L31.6919 41.6766L36.7504 47.0911V55.2445H1.75304V48.0852V48.0957ZM59.4448 55.2551H50.0671V45.5894C52.0631 47.6093 55.0728 48.3918 55.2629 48.4341L55.6853 46.7315C55.6325 46.721 50.0671 45.2722 50.0671 41.5497V40.0586C52.0631 42.0785 55.0728 42.861 55.2629 42.9033L55.6853 41.2007C55.6325 41.1902 50.0671 39.7414 50.0671 36.0189V34.5278C52.0631 36.5477 55.0728 37.3302 55.2629 37.3725L55.6853 35.6699C55.6325 35.6594 50.0671 34.2106 50.0671 30.4881V29.8113H48.3141V30.4881H48.293C48.293 34.2 42.7276 35.6488 42.6748 35.6699L43.0972 37.3725C43.2873 37.3302 46.3182 36.5371 48.3141 34.5067V36.0189H48.293C48.293 39.7308 42.7276 41.1796 42.6748 41.2007L43.0972 42.9033C43.2873 42.861 46.3182 42.0679 48.3141 40.0375V41.5497H48.293C48.293 45.2616 42.7276 46.7104 42.6748 46.7315L43.0972 48.4341C43.2873 48.3918 46.3182 47.5987 48.3141 45.5683V55.2657H38.514V25.5495H59.4448V55.2657V55.2551Z" fill="#F9F2E8" style="fill:#F9F2E8;fill:color(display-p3 0.9765 0.9490 0.9098);fill-opacity:1;"/>
</svg>
