<svg width="90" height="115" viewBox="0 0 90 115" fill="none" xmlns="http://www.w3.org/2000/svg">
<rect x="0.75" y="0.75" width="88.5" height="88.5" rx="3.25" fill="#456054" stroke="#456054" style="fill:#456054;fill:color(display-p3 0.2706 0.3765 0.3294);fill-opacity:1;stroke:#456054;stroke:color(display-p3 0.2706 0.3765 0.3294);stroke-opacity:1;" stroke-width="1.5"/>
<path d="M44.7969 78.5716C44.5927 78.5716 44.3886 78.4968 44.2389 78.3403C44.0892 78.1837 40.4281 74.5159 36.7126 68.5343C33.2761 62.9951 29.1863 54.3868 29.1863 44.785C29.1863 35.1832 33.2829 26.5681 36.7126 21.0356C40.4213 15.0541 44.0824 11.3794 44.2389 11.2297C44.5519 10.9234 45.0555 10.9234 45.3617 11.2297C45.5182 11.3862 49.1725 15.0541 52.888 21.0356C56.3245 26.5749 60.4143 35.1832 60.4143 44.785C60.4143 54.3868 56.3177 63.0019 52.888 68.5343C49.1793 74.5159 45.5182 78.1905 45.3617 78.3403C45.2052 78.4968 45.001 78.5716 44.7969 78.5716ZM44.7969 12.9445C43.6332 14.2102 40.8228 17.4222 38.0395 21.9067C34.7255 27.2622 30.7718 35.571 30.7718 44.785C30.7718 53.9989 34.7255 62.3078 38.0395 67.6633C40.816 72.1477 43.6264 75.3597 44.7969 76.6254C45.9605 75.3597 48.771 72.1477 51.5542 67.6633C54.8682 62.3078 58.8219 53.9989 58.8219 44.785C58.8219 35.571 54.8682 27.2622 51.5542 21.9067C48.771 17.4222 45.9673 14.2102 44.7969 12.9445Z" fill="#F9F2E8" style="fill:#F9F2E8;fill:color(display-p3 0.9765 0.9490 0.9098);fill-opacity:1;"/>
<path d="M68.6346 78.5716C68.4304 78.5716 68.2263 78.4967 68.0766 78.3402C64.4836 74.754 62.1086 70.0177 61.3873 64.9889L60.9246 61.7769C60.8905 61.5319 60.9722 61.2802 61.1491 61.1032C61.3261 60.9263 61.5778 60.8446 61.8228 60.8787L65.0824 61.3414C70.0909 62.0559 74.8271 64.4172 78.4065 67.9899L78.4201 68.0035C78.5699 68.1532 78.6515 68.3573 78.6515 68.5683C78.6515 68.7792 78.5699 68.9834 78.4201 69.1331L69.1926 78.3402C69.0361 78.4967 68.8319 78.5716 68.6278 78.5716H68.6346ZM62.653 62.6003L62.9661 64.7643C63.5989 69.1875 65.6064 73.3726 68.6482 76.639L76.7325 68.5751C73.4661 65.5469 69.2811 63.5462 64.8646 62.9133L62.653 62.6003Z" fill="#F9F2E8" style="fill:#F9F2E8;fill:color(display-p3 0.9765 0.9490 0.9098);fill-opacity:1;"/>
<path d="M61.714 62.4575C61.5099 62.4575 61.3057 62.3827 61.1492 62.2261L56.828 57.9118C56.515 57.5988 56.515 57.0952 56.828 56.789C57.1411 56.4759 57.6446 56.4759 57.9509 56.789L62.272 61.1033C62.585 61.4164 62.585 61.9199 62.272 62.2261C62.1223 62.3827 61.9181 62.4575 61.714 62.4575Z" fill="#F9F2E8" style="fill:#F9F2E8;fill:color(display-p3 0.9765 0.9490 0.9098);fill-opacity:1;"/>
<path d="M32.194 33.0123C31.9899 33.0123 31.7857 32.9375 31.6292 32.781L20.7412 21.8998C20.4282 21.5868 20.4282 21.0832 20.7412 20.777C21.0543 20.464 21.5578 20.464 21.8641 20.777L32.752 31.6582C33.065 31.9712 33.065 32.4747 32.752 32.781C32.6023 32.9375 32.3982 33.0123 32.194 33.0123Z" fill="#F9F2E8" style="fill:#F9F2E8;fill:color(display-p3 0.9765 0.9490 0.9098);fill-opacity:1;"/>
<path d="M21.0067 78.6465C20.7958 78.6465 20.5916 78.5648 20.4419 78.4151L11.2348 69.1876C10.9217 68.8746 10.9217 68.371 11.2348 68.0648C14.821 64.4718 19.5572 62.0968 24.5861 61.3823L27.7981 60.9196C28.043 60.8855 28.2948 60.9672 28.4718 61.1441C28.6487 61.3211 28.7303 61.5728 28.6963 61.8178L28.2336 65.0774C27.5191 70.0859 25.1577 74.8221 21.5851 78.4015L21.5715 78.4151C21.4286 78.558 21.2177 78.6465 21.0135 78.6465H21.0067ZM12.936 68.6364L20.9999 76.7207C24.0281 73.4543 26.0356 69.2693 26.6616 64.8528L26.9747 62.6412L24.8107 62.9542C20.3875 63.5871 16.2024 65.5946 12.936 68.6364Z" fill="#F9F2E8" style="fill:#F9F2E8;fill:color(display-p3 0.9765 0.9490 0.9098);fill-opacity:1;"/>
<path d="M27.9137 62.4983C27.7096 62.4983 27.5054 62.4235 27.3489 62.2669C27.0359 61.9539 27.0359 61.4503 27.3489 61.1441L31.6428 56.8366C31.9559 56.5235 32.4594 56.5235 32.7657 56.8366C33.0787 57.1496 33.0787 57.6532 32.7657 57.9594L28.4717 62.2669C28.3152 62.4166 28.1179 62.4983 27.9137 62.4983Z" fill="#F9F2E8" style="fill:#F9F2E8;fill:color(display-p3 0.9765 0.9490 0.9098);fill-opacity:1;"/>
<path d="M57.3792 32.9647C57.175 32.9647 56.9709 32.8899 56.8144 32.7334C56.5013 32.4204 56.5013 31.9168 56.8144 31.6106L67.3825 21.0288C67.6955 20.7158 68.1991 20.7158 68.5053 21.0288C68.8183 21.3419 68.8183 21.8454 68.5053 22.1517L57.9372 32.7334C57.7875 32.8899 57.5833 32.9647 57.3792 32.9647Z" fill="#F9F2E8" style="fill:#F9F2E8;fill:color(display-p3 0.9765 0.9490 0.9098);fill-opacity:1;"/>
<path d="M44.7969 60.3955C42.7623 60.3955 40.9113 58.6807 39.5775 55.5708C38.339 52.6787 37.6517 48.8407 37.6517 44.7849C37.6517 40.7292 38.3322 36.8912 39.5775 33.999C40.9113 30.8892 42.7623 29.1743 44.7969 29.1743C46.8316 29.1743 48.6826 30.8892 50.0164 33.999C51.2549 36.8912 51.9422 40.7292 51.9422 44.7849C51.9422 48.8407 51.2617 52.6787 50.0164 55.5708C48.6826 58.6807 46.8316 60.3955 44.7969 60.3955ZM44.7969 30.7599C43.4632 30.7599 42.0886 32.1685 41.0406 34.6183C39.8838 37.3199 39.2441 40.9265 39.2441 44.7781C39.2441 48.6297 39.8838 52.2432 41.0406 54.9379C42.0886 57.3877 43.4632 58.7964 44.7969 58.7964C46.1307 58.7964 47.5053 57.3877 48.5533 54.9379C49.7101 52.2364 50.3498 48.6297 50.3498 44.7781C50.3498 40.9265 49.7101 37.3131 48.5533 34.6183C47.4985 32.1685 46.1307 30.7599 44.7969 30.7599Z" fill="#F9F2E8" style="fill:#F9F2E8;fill:color(display-p3 0.9765 0.9490 0.9098);fill-opacity:1;"/>
<path d="M53.2214 23.9549H36.3655C35.93 23.9549 35.5693 23.6011 35.5693 23.1587C35.5693 22.7164 35.9232 22.3625 36.3655 22.3625H53.2214C53.6569 22.3625 54.0176 22.7164 54.0176 23.1587C54.0176 23.6011 53.6637 23.9549 53.2214 23.9549Z" fill="#F9F2E8" style="fill:#F9F2E8;fill:color(display-p3 0.9765 0.9490 0.9098);fill-opacity:1;"/>
<path d="M53.2214 67.2005H36.3655C35.93 67.2005 35.5693 66.8467 35.5693 66.4043C35.5693 65.962 35.9232 65.6082 36.3655 65.6082H53.2214C53.6569 65.6082 54.0176 65.962 54.0176 66.4043C54.0176 66.8467 53.6637 67.2005 53.2214 67.2005Z" fill="#F9F2E8" style="fill:#F9F2E8;fill:color(display-p3 0.9765 0.9490 0.9098);fill-opacity:1;"/>
<path d="M12.6506 112H11.358L15.0966 101.818H16.3693L20.108 112H18.8153L15.7727 103.429H15.6932L12.6506 112ZM13.1278 108.023H18.3381V109.116H13.1278V108.023ZM26.745 114.864V110.827H26.6456C26.5594 110.966 26.4368 111.142 26.2777 111.354C26.1186 111.562 25.8916 111.75 25.5966 111.915C25.3016 112.078 24.9089 112.159 24.4183 112.159C23.782 112.159 23.2202 111.998 22.733 111.677C22.2457 111.352 21.8646 110.895 21.5895 110.305C21.3144 109.711 21.1768 109.01 21.1768 108.202C21.1768 107.4 21.3144 106.704 21.5895 106.114C21.8646 105.524 22.2474 105.068 22.7379 104.746C23.2285 104.425 23.7952 104.264 24.4382 104.264C24.9354 104.264 25.3281 104.347 25.6165 104.513C25.9081 104.675 26.1302 104.861 26.2827 105.07C26.4384 105.275 26.5594 105.444 26.6456 105.577H26.7848V104.364H27.9183V114.864H26.745ZM24.5774 111.105C25.0481 111.105 25.4458 110.982 25.7706 110.737C26.0954 110.489 26.3423 110.146 26.5114 109.708C26.6804 109.267 26.7649 108.759 26.7649 108.182C26.7649 107.612 26.6821 107.113 26.5163 106.685C26.3506 106.254 26.1054 105.92 25.7805 105.681C25.4557 105.439 25.0547 105.318 24.5774 105.318C24.0803 105.318 23.666 105.446 23.3345 105.701C23.0064 105.953 22.7595 106.296 22.5938 106.73C22.4313 107.161 22.3501 107.645 22.3501 108.182C22.3501 108.725 22.433 109.219 22.5987 109.663C22.7678 110.104 23.0163 110.455 23.3445 110.717C23.6759 110.976 24.0869 111.105 24.5774 111.105ZM34.8786 108.878V104.364H36.0518V112H34.8786V110.707H34.799C34.62 111.095 34.3416 111.425 33.9638 111.697C33.5859 111.965 33.1087 112.099 32.532 112.099C32.0547 112.099 31.6304 111.995 31.2592 111.786C30.888 111.574 30.5964 111.256 30.3842 110.832C30.1721 110.404 30.0661 109.866 30.0661 109.216V104.364H31.2393V109.136C31.2393 109.693 31.3951 110.137 31.7067 110.469C32.0215 110.8 32.4226 110.966 32.9098 110.966C33.2015 110.966 33.4981 110.891 33.7997 110.742C34.1046 110.593 34.3598 110.364 34.5653 110.056C34.7741 109.748 34.8786 109.355 34.8786 108.878ZM40.448 112.179C39.9641 112.179 39.5249 112.088 39.1305 111.906C38.7361 111.72 38.4229 111.453 38.1909 111.105C37.9589 110.754 37.8429 110.33 37.8429 109.832C37.8429 109.395 37.929 109.04 38.1014 108.768C38.2737 108.493 38.5041 108.278 38.7924 108.122C39.0808 107.966 39.399 107.85 39.747 107.774C40.0983 107.695 40.4513 107.632 40.8059 107.585C41.2699 107.526 41.6461 107.481 41.9345 107.451C42.2261 107.418 42.4383 107.363 42.5708 107.287C42.7067 107.211 42.7747 107.078 42.7747 106.889V106.849C42.7747 106.359 42.6404 105.978 42.372 105.706C42.1068 105.434 41.7041 105.298 41.1639 105.298C40.6038 105.298 40.1646 105.421 39.8464 105.666C39.5282 105.911 39.3045 106.173 39.1752 106.452L38.0616 106.054C38.2605 105.59 38.5256 105.229 38.8571 104.97C39.1918 104.708 39.5564 104.526 39.9508 104.423C40.3485 104.317 40.7396 104.264 41.1241 104.264C41.3694 104.264 41.6511 104.294 41.9693 104.354C42.2908 104.41 42.6007 104.528 42.899 104.707C43.2006 104.886 43.4508 105.156 43.6497 105.517C43.8485 105.878 43.948 106.362 43.948 106.969V112H42.7747V110.966H42.715C42.6355 111.132 42.5029 111.309 42.3173 111.498C42.1317 111.687 41.8848 111.848 41.5765 111.98C41.2683 112.113 40.8921 112.179 40.448 112.179ZM40.627 111.125C41.091 111.125 41.4821 111.034 41.8002 110.852C42.1217 110.669 42.3637 110.434 42.5261 110.146C42.6918 109.857 42.7747 109.554 42.7747 109.236V108.162C42.725 108.222 42.6156 108.276 42.4466 108.326C42.2808 108.372 42.0886 108.414 41.8699 108.45C41.6544 108.483 41.444 108.513 41.2385 108.54C41.0363 108.563 40.8722 108.583 40.7463 108.599C40.4413 108.639 40.1563 108.704 39.8912 108.793C39.6293 108.879 39.4172 109.01 39.2548 109.186C39.0957 109.358 39.0162 109.594 39.0162 109.892C39.0162 110.3 39.167 110.608 39.4686 110.817C39.7735 111.022 40.1596 111.125 40.627 111.125ZM49.4105 104.364V105.358H45.4531V104.364H49.4105ZM46.6065 102.534H47.7798V109.812C47.7798 110.144 47.8279 110.393 47.924 110.558C48.0234 110.721 48.1494 110.83 48.3018 110.886C48.4576 110.939 48.6217 110.966 48.794 110.966C48.9233 110.966 49.0294 110.959 49.1122 110.946C49.1951 110.929 49.2614 110.916 49.3111 110.906L49.5497 111.96C49.4702 111.99 49.3591 112.02 49.2166 112.05C49.0741 112.083 48.8935 112.099 48.6747 112.099C48.3433 112.099 48.0185 112.028 47.7003 111.886C47.3854 111.743 47.1236 111.526 46.9148 111.234C46.7093 110.943 46.6065 110.575 46.6065 110.131V102.534ZM51.1754 112V104.364H52.3487V112H51.1754ZM51.772 103.091C51.5433 103.091 51.3461 103.013 51.1804 102.857C51.018 102.701 50.9368 102.514 50.9368 102.295C50.9368 102.077 51.018 101.889 51.1804 101.734C51.3461 101.578 51.5433 101.5 51.772 101.5C52.0007 101.5 52.1963 101.578 52.3587 101.734C52.5244 101.889 52.6072 102.077 52.6072 102.295C52.6072 102.514 52.5244 102.701 52.3587 102.857C52.1963 103.013 52.0007 103.091 51.772 103.091ZM59.7079 114.864V110.827H59.6085C59.5223 110.966 59.3997 111.142 59.2406 111.354C59.0815 111.562 58.8545 111.75 58.5595 111.915C58.2645 112.078 57.8717 112.159 57.3812 112.159C56.7449 112.159 56.1831 111.998 55.6958 111.677C55.2086 111.352 54.8275 110.895 54.5524 110.305C54.2773 109.711 54.1397 109.01 54.1397 108.202C54.1397 107.4 54.2773 106.704 54.5524 106.114C54.8275 105.524 55.2103 105.068 55.7008 104.746C56.1913 104.425 56.7581 104.264 57.4011 104.264C57.8983 104.264 58.291 104.347 58.5794 104.513C58.871 104.675 59.0931 104.861 59.2456 105.07C59.4013 105.275 59.5223 105.444 59.6085 105.577H59.7477V104.364H60.8812V114.864H59.7079ZM57.5403 111.105C58.0109 111.105 58.4087 110.982 58.7335 110.737C59.0583 110.489 59.3052 110.146 59.4743 109.708C59.6433 109.267 59.7278 108.759 59.7278 108.182C59.7278 107.612 59.6449 107.113 59.4792 106.685C59.3135 106.254 59.0682 105.92 58.7434 105.681C58.4186 105.439 58.0176 105.318 57.5403 105.318C57.0431 105.318 56.6288 105.446 56.2974 105.701C55.9693 105.953 55.7224 106.296 55.5566 106.73C55.3942 107.161 55.313 107.645 55.313 108.182C55.313 108.725 55.3959 109.219 55.5616 109.663C55.7306 110.104 55.9792 110.455 56.3074 110.717C56.6388 110.976 57.0498 111.105 57.5403 111.105ZM67.8414 108.878V104.364H69.0147V112H67.8414V110.707H67.7619C67.5829 111.095 67.3045 111.425 66.9267 111.697C66.5488 111.965 66.0716 112.099 65.4949 112.099C65.0176 112.099 64.5933 111.995 64.2221 111.786C63.8509 111.574 63.5592 111.256 63.3471 110.832C63.135 110.404 63.0289 109.866 63.0289 109.216V104.364H64.2022V109.136C64.2022 109.693 64.358 110.137 64.6696 110.469C64.9844 110.8 65.3855 110.966 65.8727 110.966C66.1644 110.966 66.461 110.891 66.7626 110.742C67.0675 110.593 67.3227 110.364 67.5282 110.056C67.737 109.748 67.8414 109.355 67.8414 108.878ZM74.3654 112.159C73.6296 112.159 72.9949 111.997 72.4613 111.672C71.931 111.344 71.5217 110.886 71.2333 110.3C70.9483 109.71 70.8058 109.024 70.8058 108.241C70.8058 107.459 70.9483 106.77 71.2333 106.173C71.5217 105.573 71.9227 105.106 72.4364 104.771C72.9535 104.433 73.5567 104.264 74.2461 104.264C74.6438 104.264 75.0366 104.33 75.4244 104.463C75.8121 104.596 76.1651 104.811 76.4833 105.109C76.8015 105.404 77.055 105.795 77.244 106.283C77.4329 106.77 77.5273 107.37 77.5273 108.082V108.58H71.641V107.565H76.3342C76.3342 107.134 76.248 106.75 76.0756 106.412C75.9066 106.074 75.6647 105.807 75.3498 105.612C75.0382 105.416 74.6703 105.318 74.2461 105.318C73.7788 105.318 73.3744 105.434 73.033 105.666C72.695 105.895 72.4348 106.193 72.2525 106.561C72.0702 106.929 71.979 107.323 71.979 107.744V108.42C71.979 108.997 72.0785 109.486 72.2773 109.887C72.4795 110.285 72.7596 110.588 73.1175 110.797C73.4755 111.002 73.8915 111.105 74.3654 111.105C74.6737 111.105 74.9521 111.062 75.2006 110.976C75.4525 110.886 75.6696 110.754 75.8519 110.578C76.0342 110.399 76.1751 110.177 76.2745 109.912L77.408 110.23C77.2887 110.615 77.0882 110.953 76.8065 111.244C76.5247 111.533 76.1767 111.758 75.7624 111.92C75.3481 112.08 74.8825 112.159 74.3654 112.159Z" fill="#456054" style="fill:#456054;fill:color(display-p3 0.2706 0.3765 0.3294);fill-opacity:1;"/>
</svg>
