<svg width="90" height="114" viewBox="0 0 90 114" fill="none" xmlns="http://www.w3.org/2000/svg">
<g clip-path="url(#clip0_193_1245)">
<path d="M26.4668 109.052L24.2387 93.4109H21.5212L24.8311 113.897H28.0896L31.3995 93.4109H28.682L26.4668 109.052Z" fill="#456054" style="fill:#456054;fill:color(display-p3 0.2706 0.3765 0.3294);fill-opacity:1;"/>
<path d="M32.6746 113.897H39.4619V111.41H35.4178V104.594H39.0111V102.121H35.4178V95.8976H39.4619V93.4109H32.6746V113.897Z" fill="#456054" style="fill:#456054;fill:color(display-p3 0.2706 0.3765 0.3294);fill-opacity:1;"/>
<path d="M47.1122 103.319L44.1757 93.4109H41.4324V113.897H44.1757V100.484L47.1122 109.825V113.897H49.8426V93.4109H47.1122V103.319Z" fill="#456054" style="fill:#456054;fill:color(display-p3 0.2706 0.3765 0.3294);fill-opacity:1;"/>
<path d="M51.4138 95.8976H54.0412V113.897H56.7716V95.8976H59.3989V93.4109H51.4138V95.8976Z" fill="#456054" style="fill:#456054;fill:color(display-p3 0.2706 0.3765 0.3294);fill-opacity:1;"/>
<path d="M67.1265 110.07C67.1265 110.959 66.753 111.41 66.0189 111.41H64.9113C64.1127 111.41 63.7135 110.959 63.7135 110.07V93.4109H60.9702V109.993C60.9702 112.596 62.0649 113.897 64.2544 113.897H66.5598C68.7621 113.897 69.8698 112.608 69.8698 110.019V93.4109H67.1265V110.07Z" fill="#456054" style="fill:#456054;fill:color(display-p3 0.2706 0.3765 0.3294);fill-opacity:1;"/>
<path d="M80.933 101.979V96.9284C80.933 94.5834 79.8898 93.4238 77.7905 93.4238H72.4327V113.91H75.176V105.638H76.8246L78.6276 113.91H81.2292L79.3231 105.38C80.405 104.904 80.9459 103.77 80.9459 101.992L80.933 101.979ZM78.1897 101.799C78.1897 102.791 77.7776 103.28 76.9662 103.28H75.1631V95.8847H76.9662C77.7776 95.8847 78.1897 96.3743 78.1897 97.3664V101.786V101.799Z" fill="#456054" style="fill:#456054;fill:color(display-p3 0.2706 0.3765 0.3294);fill-opacity:1;"/>
<path d="M90 95.8976V93.4109H83.2126V113.897H90V111.41H85.9559V104.594H89.5492V102.121H85.9559V95.8976H90Z" fill="#456054" style="fill:#456054;fill:color(display-p3 0.2706 0.3765 0.3294);fill-opacity:1;"/>
<path d="M6.72293 108.756L7.39265 96.0007C7.4828 94.2484 6.71005 93.3594 5.10015 93.3594H3.60616C1.99626 93.3594 1.14623 94.2355 1.05607 96.0007L0.386353 108.756H2.39551L2.67885 103.113H4.99711L4.71377 108.756H6.72293ZM2.78189 101.257L3.06523 96.1295C3.09099 95.5239 3.40009 95.2276 3.99253 95.2276H4.54634C5.12591 95.2276 5.40925 95.5239 5.38349 96.1295L5.10015 101.257H2.78189Z" fill="#456054" style="fill:#456054;fill:color(display-p3 0.2706 0.3765 0.3294);fill-opacity:1;"/>
<path d="M10.5223 108.756L11.308 93.3723H9.29882L8.50031 108.756H10.5223Z" fill="#456054" style="fill:#456054;fill:color(display-p3 0.2706 0.3765 0.3294);fill-opacity:1;"/>
<path d="M17.1423 93.3723H13.2012L12.4027 108.756H14.4119L14.7338 102.546H15.9574L16.962 108.756H18.8681L17.7733 102.353C18.5976 101.992 19.0484 101.142 19.1257 99.8016L19.3189 96.0136C19.409 94.2613 18.6749 93.3723 17.1294 93.3723H17.1423ZM17.2968 96.3486L17.1294 99.6727C17.0907 100.42 16.7688 100.794 16.1634 100.794H14.8369L15.1331 95.2405H16.4597C17.065 95.2405 17.3355 95.6142 17.2968 96.3615V96.3486Z" fill="#456054" style="fill:#456054;fill:color(display-p3 0.2706 0.3765 0.3294);fill-opacity:1;"/>
<path d="M0 114H18.7264L18.8423 111.938H0.115913L0 114Z" fill="#456054" style="fill:#456054;fill:color(display-p3 0.2706 0.3765 0.3294);fill-opacity:1;"/>
<path d="M89.9098 0H0.180298V83.4901H89.9098V0ZM87.3469 34.8391H56.6557V27.276C57.7891 27.8171 59.0255 28.1006 60.3391 28.1006C62.7733 28.0748 65.0401 27.0183 66.7272 25.1243L66.9076 24.9182C68.0924 23.5782 69.6766 22.8309 71.3509 22.8052C73.0123 22.7794 74.6093 23.4622 75.8329 24.7507L76.5927 25.5495C78.2799 27.3275 80.4951 28.2938 82.8391 28.2938C82.8649 28.2938 82.8907 28.2938 82.9035 28.2938C84.4877 28.281 86.0074 27.8171 87.3469 26.9668V34.8391ZM54.0927 65.233L36.2679 46.203C39.2043 44.1028 41.1233 40.9591 41.6385 37.4159H54.0927V65.233ZM28.6176 24.8666C34.4648 24.8666 39.2172 29.6209 39.2172 35.4704C39.2172 39.0522 37.4528 42.3119 34.4905 44.2961L29.1585 38.6013L23.4273 44.7213C20.0787 42.8402 18.0051 39.3099 18.0051 35.4704C18.0051 29.6209 22.7576 24.8666 28.6047 24.8666H28.6176ZM15.4679 34.8519H2.74326V11.3768L18.4688 27.1085C16.7172 29.2344 15.6096 31.9143 15.4679 34.8519ZM2.74326 37.4159H15.5967C16.1634 41.2168 18.3529 44.5924 21.6371 46.6539L2.73038 66.8436V37.4159H2.74326ZM29.1714 42.3635L44.9227 59.1774L37.9035 65.5938L28.2312 56.7552L19.0484 65.1429L13.008 59.6284L29.1843 42.3506L29.1714 42.3635ZM41.7673 34.8391C41.6514 32.3395 40.8271 30.0203 39.5006 28.0748L54.0798 13.4898V25.0857L53.8995 25.2403C53.8995 25.2403 54.0154 25.3562 54.0798 25.4078V34.8262H41.7544L41.7673 34.8391ZM87.3469 23.6555L87.2954 23.7071C86.1105 24.9955 84.5392 25.717 82.8778 25.7299C81.1777 25.7299 79.6451 25.047 78.4473 23.7844L77.6875 22.9855C75.9745 21.1817 73.7078 20.2154 71.2994 20.2412C68.891 20.2798 66.65 21.3363 64.9757 23.2174L64.7954 23.4236C63.5976 24.7764 62.0006 25.5237 60.3005 25.5366H60.249C58.9482 25.5366 57.6989 25.0986 56.6428 24.2868V14.6108C57.7633 15.1519 58.9868 15.4354 60.249 15.4354C60.2747 15.4354 60.3005 15.4354 60.3263 15.4354C62.7604 15.4096 65.0272 14.3531 66.7144 12.4591L66.8947 12.2529C68.0796 10.913 69.6637 10.1657 71.338 10.1399C71.3638 10.1399 71.4024 10.1399 71.441 10.1399C73.0767 10.1399 74.6351 10.8228 75.82 12.0854L76.5798 12.8843C78.267 14.6623 80.4822 15.6286 82.8263 15.6286H82.8907C84.4748 15.6157 86.0074 15.1519 87.334 14.3015V23.6555H87.3469ZM87.3469 10.9774L87.2954 11.0289C86.1105 12.3174 84.5392 13.0389 82.8778 13.0518H82.8263C81.1906 13.0518 79.6322 12.356 78.4345 11.1062L77.6746 10.3074C75.9616 8.50362 73.6949 7.55018 71.2865 7.56306C68.8781 7.60172 66.6371 8.65823 64.9628 10.5393L64.7825 10.7455C63.5847 12.0983 61.9877 12.8456 60.2876 12.8585C58.9611 12.8972 57.6989 12.4333 56.6299 11.6087V10.9259L56.7716 10.7841L56.6299 10.6424V2.56397H87.3211V10.9774H87.3469ZM54.0927 9.86935L37.8649 26.1035C35.7785 24.042 32.9966 22.6634 29.9055 22.3671V2.56397H54.0927V9.86935ZM2.74326 2.56397H27.3297V22.3671C24.6637 22.6248 22.2424 23.6813 20.2719 25.2918L2.74326 7.74344V2.56397ZM2.74326 70.4512L2.80766 70.5156L11.2435 61.5095L19.0355 68.6345L28.2184 60.2468L37.8907 69.0854L46.6743 61.0714L54.0927 68.9952V80.939H2.74326V70.4641V70.4512ZM87.3469 80.9261H73.5919V66.7663C76.5154 69.7168 80.933 70.8635 81.2164 70.9408L81.8346 68.4541C81.7573 68.4283 73.5919 66.3282 73.5919 60.8653V58.6749C76.5154 61.6254 80.933 62.7721 81.2164 62.8494L81.8346 60.3628C81.7573 60.337 73.5919 58.2369 73.5919 52.774V50.5836C76.5154 53.5341 80.933 54.6808 81.2164 54.7581L81.8346 52.2715C81.7573 52.2457 73.5919 50.1456 73.5919 44.6826V43.6905H71.0289V44.6826H71.0031C71.0031 50.1198 62.8377 52.2457 62.7604 52.2715L63.3915 54.7581C63.6749 54.6937 68.1182 53.5341 71.0418 50.5579V52.774H71.016C71.016 58.2111 62.8506 60.337 62.7733 60.3628L63.4044 62.8494C63.6877 62.785 68.1311 61.6254 71.0547 58.6492V60.8653H71.0289C71.0289 66.3024 62.8635 68.4283 62.7862 68.4541L63.4173 70.9408C63.7006 70.8764 68.144 69.7168 71.0675 66.7405V80.939H56.6943V37.403H87.3855V80.9261H87.3469Z" fill="#456054" style="fill:#456054;fill:color(display-p3 0.2706 0.3765 0.3294);fill-opacity:1;"/>
</g>
<defs>
<clipPath id="clip0_193_1245">
<rect width="90" height="114" fill="white" style="fill:white;fill-opacity:1;"/>
</clipPath>
</defs>
</svg>
