<svg width="90" height="115" viewBox="0 0 90 115" fill="none" xmlns="http://www.w3.org/2000/svg">
<rect x="0.75" y="0.75" width="88.5" height="88.5" rx="3.25" fill="#456054" stroke="#456054" style="fill:#456054;fill:color(display-p3 0.2706 0.3765 0.3294);fill-opacity:1;stroke:#456054;stroke:color(display-p3 0.2706 0.3765 0.3294);stroke-opacity:1;" stroke-width="1.5"/>
<path d="M79.7972 75.0134H14.7962C14.3607 75.0134 14 74.6595 14 74.2172C14 73.7749 14.3539 73.421 14.7962 73.421H79.7972C80.2327 73.421 80.5934 73.7749 80.5934 74.2172C80.5934 74.6527 80.2396 75.0134 79.7972 75.0134Z" fill="#F9F2E8" style="fill:#F9F2E8;fill:color(display-p3 0.9765 0.9490 0.9098);fill-opacity:1;"/>
<path d="M73.1692 75.0134C73.0467 75.0134 72.9242 74.9862 72.8153 74.9317C72.4206 74.7344 72.2641 74.258 72.4615 73.8633L76.4424 65.9083C76.6397 65.5136 77.1161 65.3571 77.5107 65.5545C77.9054 65.7518 78.0619 66.2282 77.8646 66.6229L73.8837 74.5779C73.7408 74.8569 73.4618 75.0202 73.1692 75.0202V75.0134Z" fill="#F9F2E8" style="fill:#F9F2E8;fill:color(display-p3 0.9765 0.9490 0.9098);fill-opacity:1;"/>
<path d="M73.1692 75.0134C72.9583 75.0134 72.7541 74.9317 72.6044 74.782C72.4547 74.6323 72.373 74.4282 72.373 74.2172C72.373 74.0062 72.4547 73.8021 72.6044 73.6524C72.7473 73.5027 72.9583 73.421 73.1692 73.421C73.3802 73.421 73.5843 73.5027 73.734 73.6524C73.8837 73.7953 73.9654 74.0062 73.9654 74.2172C73.9654 74.4282 73.8837 74.6323 73.734 74.782C73.5843 74.9317 73.3802 75.0134 73.1692 75.0134Z" fill="#F9F2E8" style="fill:#F9F2E8;fill:color(display-p3 0.9765 0.9490 0.9098);fill-opacity:1;"/>
<path d="M73.1693 75.0134C72.8903 75.0134 72.6181 74.8637 72.4684 74.5983L46.6027 27.5079C46.3917 27.12 46.5278 26.6369 46.9157 26.4259C47.3036 26.215 47.7867 26.3511 47.9977 26.739L73.8634 73.8293C74.0743 74.2172 73.9382 74.7004 73.5504 74.9113C73.4279 74.9794 73.2918 75.0134 73.1625 75.0134H73.1693Z" fill="#F9F2E8" style="fill:#F9F2E8;fill:color(display-p3 0.9765 0.9490 0.9098);fill-opacity:1;"/>
<path d="M21.4311 75.0133C21.3018 75.0133 21.1725 74.9793 21.05 74.918C20.6621 74.7071 20.526 74.2239 20.737 73.8361L46.6027 26.7457C46.8136 26.3578 47.2968 26.2217 47.6846 26.4326C48.0725 26.6436 48.2086 27.1268 47.9977 27.5146L22.1252 74.5982C21.9823 74.8636 21.7101 75.0133 21.4311 75.0133Z" fill="#F9F2E8" style="fill:#F9F2E8;fill:color(display-p3 0.9765 0.9490 0.9098);fill-opacity:1;"/>
<path d="M21.4309 75.0134C21.22 75.0134 21.0158 74.9317 20.8661 74.782C20.7164 74.6391 20.6348 74.4282 20.6348 74.2172C20.6348 74.0062 20.7164 73.8021 20.8661 73.6524C21.009 73.5027 21.22 73.421 21.4309 73.421C21.6419 73.421 21.846 73.5027 21.9958 73.6524C22.1455 73.7953 22.2271 74.0062 22.2271 74.2172C22.2271 74.4282 22.1455 74.6323 21.9958 74.782C21.846 74.9317 21.6419 75.0134 21.4309 75.0134Z" fill="#F9F2E8" style="fill:#F9F2E8;fill:color(display-p3 0.9765 0.9490 0.9098);fill-opacity:1;"/>
<path d="M21.4309 75.0134C21.1383 75.0134 20.8593 74.85 20.7164 74.571L16.7355 66.616C16.5382 66.2213 16.7015 65.745 17.0894 65.5476C17.484 65.3503 17.9604 65.5136 18.1577 65.9015L22.1386 73.8565C22.336 74.2512 22.1727 74.7275 21.7848 74.9249C21.6691 74.9793 21.5466 75.0065 21.4309 75.0065V75.0134Z" fill="#F9F2E8" style="fill:#F9F2E8;fill:color(display-p3 0.9765 0.9490 0.9098);fill-opacity:1;"/>
<path d="M47.2967 27.9162C47.0925 27.9162 46.8884 27.8413 46.7318 27.6848C46.4188 27.3718 46.4188 26.8682 46.7318 26.562L52.6998 20.594C53.0128 20.281 53.5164 20.281 53.8226 20.594C54.1357 20.9071 54.1357 21.4106 53.8226 21.7168L47.8547 27.6848C47.6982 27.8413 47.5008 27.9162 47.2967 27.9162Z" fill="#F9F2E8" style="fill:#F9F2E8;fill:color(display-p3 0.9765 0.9490 0.9098);fill-opacity:1;"/>
<path d="M61.2265 75.0134C60.9815 75.0134 60.7365 74.8977 60.58 74.6867L47.2967 56.3406L34.0134 74.6867C33.7548 75.0406 33.2581 75.1223 32.9042 74.8637C32.5504 74.6051 32.4687 74.1083 32.7273 73.7545L46.657 54.5168C46.8068 54.3127 47.0449 54.1902 47.3035 54.1902C47.5621 54.1902 47.8003 54.3127 47.95 54.5168L61.8798 73.7477C62.1384 74.1015 62.0567 74.5983 61.7028 74.8569C61.5599 74.9589 61.3966 75.0134 61.2401 75.0134H61.2265Z" fill="#F9F2E8" style="fill:#F9F2E8;fill:color(display-p3 0.9765 0.9490 0.9098);fill-opacity:1;"/>
<path d="M47.2966 55.7757C46.8611 55.7757 46.5004 55.4219 46.5004 54.9795V27.4534L40.7638 21.7168C40.4508 21.4038 40.4508 20.9002 40.7638 20.594C41.0769 20.281 41.5804 20.281 41.8866 20.594L47.8546 26.562C48.0043 26.7117 48.086 26.9158 48.086 27.1268V54.9863C48.086 55.4218 47.7253 55.7757 47.2898 55.7757H47.2966Z" fill="#F9F2E8" style="fill:#F9F2E8;fill:color(display-p3 0.9765 0.9490 0.9098);fill-opacity:1;"/>
<path d="M75.1562 29.2431H63.2202C61.9409 29.2431 60.7432 28.7463 59.845 27.8481C58.9467 26.9498 58.45 25.7453 58.45 24.4728C58.45 22.5266 59.3006 20.7437 60.7704 19.58C61.1175 19.3078 61.6143 19.3691 61.8865 19.7161C62.1587 20.0632 62.0974 20.56 61.7504 20.8322C60.6752 21.6828 60.0355 23.0438 60.0355 24.4796C60.0355 25.3302 60.369 26.1264 60.9678 26.7321C61.5666 27.3309 62.3696 27.6643 63.2202 27.6643H75.1562C76.9118 27.6643 78.3409 26.2353 78.3409 24.4796C78.3409 22.5606 77.64 20.7505 76.3742 19.3963C75.1153 18.0557 73.4481 17.3208 71.6788 17.3208C71.0868 17.3208 70.4948 17.4024 69.9299 17.5726C69.508 17.6951 69.0657 17.4569 68.9432 17.035C68.8207 16.6131 69.0589 16.1707 69.4808 16.0483C70.1953 15.8373 70.9303 15.7352 71.6788 15.7352C73.8904 15.7352 75.9727 16.6539 77.5379 18.3143C79.0826 19.9679 79.94 22.1591 79.94 24.4864C79.94 27.1199 77.7965 29.2635 75.163 29.2635L75.1562 29.2431Z" fill="#F9F2E8" style="fill:#F9F2E8;fill:color(display-p3 0.9765 0.9490 0.9098);fill-opacity:1;"/>
<path d="M61.2605 20.9955C61.1652 20.9955 61.0632 20.9751 60.9679 20.9411C60.7025 20.839 60.5188 20.6008 60.4711 20.3218C60.4235 20.036 60.4031 19.7502 60.4031 19.4644C60.4031 16.4498 62.8529 14 65.8675 14C67.6504 14 69.3244 14.871 70.3519 16.3341C70.4948 16.5451 70.5357 16.8105 70.4472 17.0554C70.3655 17.3004 70.1682 17.4841 69.9164 17.5522C68.569 17.9401 67.3918 18.7703 66.5003 19.9475C66.2894 20.2265 65.9151 20.3354 65.5885 20.2129C65.1461 20.0428 64.6834 19.9612 64.2139 19.9612C63.3224 19.9612 62.4718 20.2606 61.7505 20.8254C61.6076 20.9343 61.4306 20.9955 61.2537 20.9955H61.2605ZM65.8743 15.5924C63.9621 15.5924 62.3697 16.9874 62.0567 18.8043C62.7372 18.5117 63.4653 18.3688 64.2139 18.3688C64.6834 18.3688 65.1461 18.43 65.5953 18.5457C66.3642 17.6543 67.2897 16.9534 68.3241 16.4702C67.6368 15.9122 66.7725 15.5924 65.8743 15.5924Z" fill="#F9F2E8" style="fill:#F9F2E8;fill:color(display-p3 0.9765 0.9490 0.9098);fill-opacity:1;"/>
<path d="M31.3068 101.818V112H30.1136L24.5653 104.006H24.4659V112H23.233V101.818H24.4261L29.9943 109.832H30.0938V101.818H31.3068ZM35.862 112.179C35.3781 112.179 34.939 112.088 34.5446 111.906C34.1502 111.72 33.8369 111.453 33.6049 111.105C33.3729 110.754 33.2569 110.33 33.2569 109.832C33.2569 109.395 33.3431 109.04 33.5154 108.768C33.6878 108.493 33.9181 108.278 34.2065 108.122C34.4949 107.966 34.813 107.85 35.161 107.774C35.5124 107.695 35.8654 107.632 36.22 107.585C36.684 107.526 37.0602 107.481 37.3485 107.451C37.6402 107.418 37.8523 107.363 37.9849 107.287C38.1208 107.211 38.1887 107.078 38.1887 106.889V106.849C38.1887 106.359 38.0545 105.978 37.786 105.706C37.5209 105.434 37.1182 105.298 36.5779 105.298C36.0178 105.298 35.5787 105.421 35.2605 105.666C34.9423 105.911 34.7186 106.173 34.5893 106.452L33.4757 106.054C33.6745 105.59 33.9397 105.229 34.2711 104.97C34.6059 104.708 34.9705 104.526 35.3649 104.423C35.7626 104.317 36.1537 104.264 36.5382 104.264C36.7834 104.264 37.0652 104.294 37.3833 104.354C37.7048 104.41 38.0147 104.528 38.313 104.707C38.6146 104.886 38.8649 105.156 39.0637 105.517C39.2626 105.878 39.362 106.362 39.362 106.969V112H38.1887V110.966H38.1291C38.0495 111.132 37.917 111.309 37.7314 111.498C37.5458 111.687 37.2988 111.848 36.9906 111.98C36.6824 112.113 36.3062 112.179 35.862 112.179ZM36.041 111.125C36.505 111.125 36.8961 111.034 37.2143 110.852C37.5358 110.669 37.7778 110.434 37.9402 110.146C38.1059 109.857 38.1887 109.554 38.1887 109.236V108.162C38.139 108.222 38.0297 108.276 37.8606 108.326C37.6949 108.372 37.5027 108.414 37.2839 108.45C37.0685 108.483 36.858 108.513 36.6525 108.54C36.4503 108.563 36.2863 108.583 36.1603 108.599C35.8554 108.639 35.5704 108.704 35.3052 108.793C35.0434 108.879 34.8313 109.01 34.6689 109.186C34.5098 109.358 34.4302 109.594 34.4302 109.892C34.4302 110.3 34.581 110.608 34.8826 110.817C35.1876 111.022 35.5737 111.125 36.041 111.125ZM44.8246 104.364V105.358H40.8672V104.364H44.8246ZM42.0206 102.534H43.1939V109.812C43.1939 110.144 43.242 110.393 43.3381 110.558C43.4375 110.721 43.5634 110.83 43.7159 110.886C43.8717 110.939 44.0357 110.966 44.2081 110.966C44.3374 110.966 44.4434 110.959 44.5263 110.946C44.6091 110.929 44.6754 110.916 44.7251 110.906L44.9638 111.96C44.8842 111.99 44.7732 112.02 44.6307 112.05C44.4882 112.083 44.3075 112.099 44.0888 112.099C43.7573 112.099 43.4325 112.028 43.1143 111.886C42.7995 111.743 42.5376 111.526 42.3288 111.234C42.1233 110.943 42.0206 110.575 42.0206 110.131V102.534ZM51.402 108.878V104.364H52.5753V112H51.402V110.707H51.3224C51.1435 111.095 50.8651 111.425 50.4872 111.697C50.1094 111.965 49.6321 112.099 49.0554 112.099C48.5781 112.099 48.1539 111.995 47.7827 111.786C47.4115 111.574 47.1198 111.256 46.9077 110.832C46.6955 110.404 46.5895 109.866 46.5895 109.216V104.364H47.7628V109.136C47.7628 109.693 47.9186 110.137 48.2301 110.469C48.545 110.8 48.946 110.966 49.4332 110.966C49.7249 110.966 50.0215 110.891 50.3232 110.742C50.6281 110.593 50.8833 110.364 51.0888 110.056C51.2976 109.748 51.402 109.355 51.402 108.878ZM54.7243 112V104.364H55.8578V105.517H55.9373C56.0765 105.139 56.3284 104.833 56.693 104.597C57.0576 104.362 57.4686 104.244 57.926 104.244C58.0121 104.244 58.1199 104.246 58.2491 104.249C58.3784 104.253 58.4761 104.258 58.5424 104.264V105.457C58.5027 105.447 58.4115 105.433 58.269 105.413C58.1298 105.389 57.9823 105.378 57.8265 105.378C57.4553 105.378 57.1239 105.456 56.8322 105.612C56.5439 105.764 56.3152 105.976 56.1461 106.248C55.9804 106.516 55.8975 106.823 55.8975 107.168V112H54.7243ZM62.9025 112.159C62.1667 112.159 61.532 111.997 60.9984 111.672C60.4681 111.344 60.0588 110.886 59.7704 110.3C59.4854 109.71 59.3429 109.024 59.3429 108.241C59.3429 107.459 59.4854 106.77 59.7704 106.173C60.0588 105.573 60.4598 105.106 60.9735 104.771C61.4906 104.433 62.0938 104.264 62.7832 104.264C63.1809 104.264 63.5737 104.33 63.9615 104.463C64.3493 104.596 64.7022 104.811 65.0204 105.109C65.3386 105.404 65.5922 105.795 65.7811 106.283C65.97 106.77 66.0645 107.37 66.0645 108.082V108.58H60.1781V107.565H64.8713C64.8713 107.134 64.7851 106.75 64.6127 106.412C64.4437 106.074 64.2018 105.807 63.8869 105.612C63.5753 105.416 63.2074 105.318 62.7832 105.318C62.3159 105.318 61.9115 105.434 61.5701 105.666C61.2321 105.895 60.9719 106.193 60.7896 106.561C60.6073 106.929 60.5162 107.323 60.5162 107.744V108.42C60.5162 108.997 60.6156 109.486 60.8145 109.887C61.0166 110.285 61.2967 110.588 61.6547 110.797C62.0126 111.002 62.4286 111.105 62.9025 111.105C63.2108 111.105 63.4892 111.062 63.7377 110.976C63.9896 110.886 64.2067 110.754 64.389 110.578C64.5713 110.399 64.7122 110.177 64.8116 109.912L65.9451 110.23C65.8258 110.615 65.6253 110.953 65.3436 111.244C65.0618 111.533 64.7138 111.758 64.2995 111.92C63.8852 112.08 63.4196 112.159 62.9025 112.159Z" fill="#456054" style="fill:#456054;fill:color(display-p3 0.2706 0.3765 0.3294);fill-opacity:1;"/>
</svg>
