<svg width="90" height="116" viewBox="0 0 90 116" fill="none" xmlns="http://www.w3.org/2000/svg">
<path d="M34.3068 101.818V112H33.1136L27.5653 104.006H27.4659V112H26.233V101.818H27.4261L32.9943 109.832H33.0938V101.818H34.3068ZM39.8166 112.159C39.0808 112.159 38.4461 111.997 37.9125 111.672C37.3822 111.344 36.9728 110.886 36.6845 110.3C36.3994 109.71 36.2569 109.024 36.2569 108.241C36.2569 107.459 36.3994 106.77 36.6845 106.173C36.9728 105.573 37.3739 105.106 37.8876 104.771C38.4047 104.433 39.0079 104.264 39.6973 104.264C40.095 104.264 40.4877 104.33 40.8755 104.463C41.2633 104.596 41.6163 104.811 41.9345 105.109C42.2527 105.404 42.5062 105.795 42.6951 106.283C42.8841 106.77 42.9785 107.37 42.9785 108.082V108.58H37.0922V107.565H41.7853C41.7853 107.134 41.6992 106.75 41.5268 106.412C41.3578 106.074 41.1158 105.807 40.801 105.612C40.4894 105.416 40.1215 105.318 39.6973 105.318C39.2299 105.318 38.8256 105.434 38.4842 105.666C38.1461 105.895 37.8859 106.193 37.7037 106.561C37.5214 106.929 37.4302 107.323 37.4302 107.744V108.42C37.4302 108.997 37.5297 109.486 37.7285 109.887C37.9307 110.285 38.2108 110.588 38.5687 110.797C38.9267 111.002 39.3426 111.105 39.8166 111.105C40.1248 111.105 40.4032 111.062 40.6518 110.976C40.9037 110.886 41.1208 110.754 41.3031 110.578C41.4854 110.399 41.6262 110.177 41.7257 109.912L42.8592 110.23C42.7399 110.615 42.5394 110.953 42.2576 111.244C41.9759 111.533 41.6279 111.758 41.2136 111.92C40.7993 112.08 40.3336 112.159 39.8166 112.159ZM44.7633 112V104.364H45.9366V112H44.7633ZM45.3599 103.091C45.1312 103.091 44.934 103.013 44.7683 102.857C44.6059 102.701 44.5247 102.514 44.5247 102.295C44.5247 102.077 44.6059 101.889 44.7683 101.734C44.934 101.578 45.1312 101.5 45.3599 101.5C45.5886 101.5 45.7842 101.578 45.9466 101.734C46.1123 101.889 46.1951 102.077 46.1951 102.295C46.1951 102.514 46.1123 102.701 45.9466 102.857C45.7842 103.013 45.5886 103.091 45.3599 103.091ZM51.168 115.023C50.6012 115.023 50.114 114.95 49.7063 114.804C49.2987 114.661 48.9589 114.473 48.6871 114.237C48.4187 114.005 48.2049 113.757 48.0458 113.491L48.9805 112.835C49.0865 112.974 49.2208 113.134 49.3832 113.312C49.5456 113.495 49.7676 113.652 50.0494 113.785C50.3344 113.921 50.7073 113.989 51.168 113.989C51.7844 113.989 52.2932 113.839 52.6942 113.541C53.0953 113.243 53.2958 112.776 53.2958 112.139V110.588H53.1964C53.1102 110.727 52.9876 110.9 52.8285 111.105C52.6727 111.307 52.4473 111.488 52.1523 111.647C51.8607 111.803 51.4663 111.881 50.9691 111.881C50.3526 111.881 49.7991 111.735 49.3086 111.443C48.8214 111.152 48.4353 110.727 48.1502 110.17C47.8685 109.614 47.7276 108.937 47.7276 108.142C47.7276 107.36 47.8652 106.679 48.1403 106.099C48.4154 105.515 48.7982 105.065 49.2887 104.746C49.7792 104.425 50.346 104.264 50.989 104.264C51.4862 104.264 51.8806 104.347 52.1722 104.513C52.4672 104.675 52.6926 104.861 52.8484 105.07C53.0075 105.275 53.1301 105.444 53.2163 105.577H53.3356V104.364H54.4691V112.219C54.4691 112.875 54.32 113.409 54.0217 113.82C53.7267 114.234 53.329 114.537 52.8285 114.729C52.3313 114.925 51.7778 115.023 51.168 115.023ZM51.1282 110.827C51.5988 110.827 51.9966 110.719 52.3214 110.504C52.6462 110.288 52.8931 109.978 53.0621 109.574C53.2312 109.17 53.3157 108.686 53.3157 108.122C53.3157 107.572 53.2328 107.086 53.0671 106.665C52.9014 106.245 52.6561 105.915 52.3313 105.676C52.0065 105.437 51.6055 105.318 51.1282 105.318C50.631 105.318 50.2167 105.444 49.8853 105.696C49.5572 105.948 49.3103 106.286 49.1445 106.71C48.9821 107.134 48.9009 107.605 48.9009 108.122C48.9009 108.652 48.9838 109.121 49.1495 109.529C49.3185 109.933 49.5671 110.252 49.8952 110.484C50.2267 110.712 50.6377 110.827 51.1282 110.827ZM59.8185 112.159C59.0827 112.159 58.448 111.997 57.9144 111.672C57.3841 111.344 56.9748 110.886 56.6864 110.3C56.4014 109.71 56.2589 109.024 56.2589 108.241C56.2589 107.459 56.4014 106.77 56.6864 106.173C56.9748 105.573 57.3758 105.106 57.8896 104.771C58.4066 104.433 59.0098 104.264 59.6992 104.264C60.0969 104.264 60.4897 104.33 60.8775 104.463C61.2653 104.596 61.6183 104.811 61.9364 105.109C62.2546 105.404 62.5082 105.795 62.6971 106.283C62.886 106.77 62.9805 107.37 62.9805 108.082V108.58H57.0941V107.565H61.7873C61.7873 107.134 61.7011 106.75 61.5288 106.412C61.3597 106.074 61.1178 105.807 60.8029 105.612C60.4914 105.416 60.1235 105.318 59.6992 105.318C59.2319 105.318 58.8275 105.434 58.4862 105.666C58.1481 105.895 57.8879 106.193 57.7056 106.561C57.5233 106.929 57.4322 107.323 57.4322 107.744V108.42C57.4322 108.997 57.5316 109.486 57.7305 109.887C57.9326 110.285 58.2127 110.588 58.5707 110.797C58.9286 111.002 59.3446 111.105 59.8185 111.105C60.1268 111.105 60.4052 111.062 60.6538 110.976C60.9057 110.886 61.1228 110.754 61.305 110.578C61.4873 110.399 61.6282 110.177 61.7276 109.912L62.8612 110.23C62.7418 110.615 62.5413 110.953 62.2596 111.244C61.9779 111.533 61.6299 111.758 61.2156 111.92C60.8013 112.08 60.3356 112.159 59.8185 112.159Z" fill="#456054" style="fill:#456054;fill:color(display-p3 0.2706 0.3765 0.3294);fill-opacity:1;"/>
<rect x="0.75" y="0.75" width="88.5" height="88.5" rx="3.25" stroke="#456054" style="stroke:#456054;stroke:color(display-p3 0.2706 0.3765 0.3294);stroke-opacity:1;" stroke-width="1.5"/>
<path d="M33.8916 67.9031C30.8157 67.9031 28.2502 65.4942 28.0461 62.4251L25.4262 22.1737C25.2629 19.6015 26.1543 17.0836 27.876 15.2599C29.4819 13.5587 31.6187 12.6196 33.8916 12.6196C36.1644 12.6196 38.3012 13.5587 39.9072 15.2599C41.622 17.0836 42.5202 19.6015 42.3569 22.1737L39.737 62.4319C39.5397 65.501 36.9674 67.9099 33.8916 67.9099V67.9031ZM33.8916 14.2119C32.061 14.2119 30.3326 14.9741 29.0328 16.3555C27.6174 17.8594 26.8824 19.9485 27.0117 22.0785L29.6317 62.3299C29.7746 64.5687 31.6459 66.3176 33.8848 66.3176C36.1236 66.3176 37.995 64.5687 38.1379 62.3299L40.7578 22.0785C40.8939 19.9485 40.1521 17.8662 38.7367 16.3555C37.437 14.9741 35.7153 14.2119 33.8779 14.2119H33.8916Z" fill="#456054" style="fill:#456054;fill:color(display-p3 0.2706 0.3765 0.3294);fill-opacity:1;"/>
<path d="M39.7303 47.7605H28.0597C27.6242 47.7605 27.2635 47.4066 27.2635 46.9643C27.2635 46.5219 27.6174 46.1681 28.0597 46.1681H39.7303C40.1658 46.1681 40.5264 46.5219 40.5264 46.9643C40.5264 47.4066 40.1726 47.7605 39.7303 47.7605Z" fill="#456054" style="fill:#456054;fill:color(display-p3 0.2706 0.3765 0.3294);fill-opacity:1;"/>
<path d="M39.0769 57.8318H28.7198C28.2843 57.8318 27.9236 57.4779 27.9236 57.0356C27.9236 56.5933 28.2775 56.2394 28.7198 56.2394H39.0769C39.5125 56.2394 39.8731 56.5933 39.8731 57.0356C39.8731 57.4779 39.5193 57.8318 39.0769 57.8318Z" fill="#456054" style="fill:#456054;fill:color(display-p3 0.2706 0.3765 0.3294);fill-opacity:1;"/>
<path d="M57.2326 67.9031C54.1568 67.9031 51.5913 65.4942 51.3872 62.4251L48.7672 22.1737C48.6039 19.6015 49.4954 17.0836 51.217 15.2599C52.823 13.5587 54.9598 12.6196 57.2326 12.6196C59.5055 12.6196 61.6422 13.5587 63.2482 15.2599C64.9631 17.0836 65.8613 19.6015 65.698 22.1737L63.0781 62.4319C62.8739 65.501 60.3085 67.9099 57.2326 67.9099V67.9031ZM57.2326 14.2119C55.4021 14.2119 53.6736 14.9741 52.3739 16.3555C50.9584 17.8594 50.2235 19.9485 50.3528 22.0785L52.9727 62.3299C53.1156 64.5687 54.987 66.3176 57.2258 66.3176C59.4646 66.3176 61.336 64.5687 61.4789 62.3299L64.0988 22.0785C64.2349 19.9485 63.4932 17.8662 62.0778 16.3555C60.778 14.9741 59.0496 14.2119 57.219 14.2119H57.2326Z" fill="#456054" style="fill:#456054;fill:color(display-p3 0.2706 0.3765 0.3294);fill-opacity:1;"/>
<path d="M63.0645 47.7605H51.394C50.9585 47.7605 50.5978 47.4066 50.5978 46.9643C50.5978 46.5219 50.9516 46.1681 51.394 46.1681H63.0645C63.5 46.1681 63.8607 46.5219 63.8607 46.9643C63.8607 47.3998 63.5068 47.7605 63.0645 47.7605Z" fill="#456054" style="fill:#456054;fill:color(display-p3 0.2706 0.3765 0.3294);fill-opacity:1;"/>
<path d="M62.4111 57.8318H52.054C51.6185 57.8318 51.2578 57.4779 51.2578 57.0356C51.2578 56.5933 51.6117 56.2394 52.054 56.2394H62.4111C62.8467 56.2394 63.2073 56.5933 63.2073 57.0356C63.2073 57.4779 62.8535 57.8318 62.4111 57.8318Z" fill="#456054" style="fill:#456054;fill:color(display-p3 0.2706 0.3765 0.3294);fill-opacity:1;"/>
<path d="M17.7026 78.5189C17.267 78.5189 16.9064 78.165 16.9064 77.7227V11.7962C16.9064 11.3607 17.2602 11 17.7026 11C18.1449 11 18.4987 11.3539 18.4987 11.7962V77.7227C18.4987 78.165 18.1449 78.5189 17.7026 78.5189Z" fill="#456054" style="fill:#456054;fill:color(display-p3 0.2706 0.3765 0.3294);fill-opacity:1;"/>
<path d="M22.8811 73.8779H12.7962C12.3607 73.8779 12 73.524 12 73.0817C12 72.6394 12.3539 72.2855 12.7962 72.2855H22.8811C23.3167 72.2855 23.6773 72.6394 23.6773 73.0817C23.6773 73.524 23.3235 73.8779 22.8811 73.8779Z" fill="#456054" style="fill:#456054;fill:color(display-p3 0.2706 0.3765 0.3294);fill-opacity:1;"/>
<path d="M73.4217 78.5189C72.9862 78.5189 72.6255 78.165 72.6255 77.7227V11.7962C72.6255 11.3607 72.9794 11 73.4217 11C73.864 11 74.2178 11.3539 74.2178 11.7962V77.7227C74.2178 78.165 73.864 78.5189 73.4217 78.5189Z" fill="#456054" style="fill:#456054;fill:color(display-p3 0.2706 0.3765 0.3294);fill-opacity:1;"/>
<path d="M78.0626 73.8779H68.7738C68.3383 73.8779 67.9777 73.524 67.9777 73.0817C67.9777 72.6394 68.3315 72.2855 68.7738 72.2855H78.0626C78.4981 72.2855 78.8588 72.6394 78.8588 73.0817C78.8588 73.524 78.5049 73.8779 78.0626 73.8779Z" fill="#456054" style="fill:#456054;fill:color(display-p3 0.2706 0.3765 0.3294);fill-opacity:1;"/>
</svg>
