<svg width="90" height="116" viewBox="0 0 90 116" fill="none" xmlns="http://www.w3.org/2000/svg">
<path d="M19.233 112V101.818H22.6733C23.4721 101.818 24.125 101.962 24.6321 102.251C25.1425 102.536 25.5204 102.922 25.7656 103.409C26.0109 103.896 26.1335 104.44 26.1335 105.04C26.1335 105.64 26.0109 106.185 25.7656 106.675C25.5237 107.166 25.1491 107.557 24.642 107.849C24.1349 108.137 23.4853 108.281 22.6932 108.281H20.2273V107.188H22.6534C23.2003 107.188 23.6394 107.093 23.9709 106.904C24.3023 106.715 24.5426 106.46 24.6918 106.138C24.8442 105.814 24.9205 105.447 24.9205 105.04C24.9205 104.632 24.8442 104.268 24.6918 103.946C24.5426 103.625 24.3007 103.373 23.9659 103.19C23.6312 103.005 23.187 102.912 22.6335 102.912H20.4659V112H19.233ZM27.9606 112V104.364H29.1339V112H27.9606ZM28.5572 103.091C28.3285 103.091 28.1313 103.013 27.9656 102.857C27.8031 102.701 27.7219 102.514 27.7219 102.295C27.7219 102.077 27.8031 101.889 27.9656 101.734C28.1313 101.578 28.3285 101.5 28.5572 101.5C28.7859 101.5 28.9814 101.578 29.1438 101.734C29.3095 101.889 29.3924 102.077 29.3924 102.295C29.3924 102.514 29.3095 102.701 29.1438 102.857C28.9814 103.013 28.7859 103.091 28.5572 103.091ZM32.4561 101.818V112H31.2828V101.818H32.4561ZM37.7074 112.159C37.018 112.159 36.4131 111.995 35.8928 111.667C35.3757 111.339 34.9714 110.88 34.6797 110.29C34.3913 109.7 34.2472 109.01 34.2472 108.222C34.2472 107.426 34.3913 106.732 34.6797 106.138C34.9714 105.545 35.3757 105.085 35.8928 104.756C36.4131 104.428 37.018 104.264 37.7074 104.264C38.3968 104.264 39 104.428 39.517 104.756C40.0374 105.085 40.4418 105.545 40.7301 106.138C41.0218 106.732 41.1676 107.426 41.1676 108.222C41.1676 109.01 41.0218 109.7 40.7301 110.29C40.4418 110.88 40.0374 111.339 39.517 111.667C39 111.995 38.3968 112.159 37.7074 112.159ZM37.7074 111.105C38.2311 111.105 38.6619 110.971 39 110.702C39.3381 110.434 39.5883 110.081 39.7507 109.643C39.9131 109.206 39.9943 108.732 39.9943 108.222C39.9943 107.711 39.9131 107.236 39.7507 106.795C39.5883 106.354 39.3381 105.998 39 105.726C38.6619 105.454 38.2311 105.318 37.7074 105.318C37.1837 105.318 36.7528 105.454 36.4148 105.726C36.0767 105.998 35.8265 106.354 35.6641 106.795C35.5017 107.236 35.4205 107.711 35.4205 108.222C35.4205 108.732 35.5017 109.206 35.6641 109.643C35.8265 110.081 36.0767 110.434 36.4148 110.702C36.7528 110.971 37.1837 111.105 37.7074 111.105ZM46.2797 104.364V105.358H42.3223V104.364H46.2797ZM43.4757 102.534H44.649V109.812C44.649 110.144 44.697 110.393 44.7931 110.558C44.8926 110.721 45.0185 110.83 45.171 110.886C45.3268 110.939 45.4908 110.966 45.6632 110.966C45.7924 110.966 45.8985 110.959 45.9814 110.946C46.0642 110.929 46.1305 110.916 46.1802 110.906L46.4189 111.96C46.3393 111.99 46.2283 112.02 46.0858 112.05C45.9432 112.083 45.7626 112.099 45.5439 112.099C45.2124 112.099 44.8876 112.028 44.5694 111.886C44.2546 111.743 43.9927 111.526 43.7839 111.234C43.5784 110.943 43.4757 110.575 43.4757 110.131V102.534ZM50.2917 112.179C49.8078 112.179 49.3687 112.088 48.9743 111.906C48.5798 111.72 48.2666 111.453 48.0346 111.105C47.8026 110.754 47.6866 110.33 47.6866 109.832C47.6866 109.395 47.7728 109.04 47.9451 108.768C48.1175 108.493 48.3478 108.278 48.6362 108.122C48.9245 107.966 49.2427 107.85 49.5907 107.774C49.9421 107.695 50.295 107.632 50.6497 107.585C51.1137 107.526 51.4899 107.481 51.7782 107.451C52.0699 107.418 52.282 107.363 52.4146 107.287C52.5505 107.211 52.6184 107.078 52.6184 106.889V106.849C52.6184 106.359 52.4842 105.978 52.2157 105.706C51.9506 105.434 51.5479 105.298 51.0076 105.298C50.4475 105.298 50.0083 105.421 49.6902 105.666C49.372 105.911 49.1483 106.173 49.019 106.452L47.9054 106.054C48.1042 105.59 48.3694 105.229 48.7008 104.97C49.0356 104.708 49.4002 104.526 49.7946 104.423C50.1923 104.317 50.5834 104.264 50.9679 104.264C51.2131 104.264 51.4949 104.294 51.813 104.354C52.1345 104.41 52.4444 104.528 52.7427 104.707C53.0443 104.886 53.2946 105.156 53.4934 105.517C53.6923 105.878 53.7917 106.362 53.7917 106.969V112H52.6184V110.966H52.5588C52.4792 111.132 52.3467 111.309 52.161 111.498C51.9754 111.687 51.7285 111.848 51.4203 111.98C51.112 112.113 50.7359 112.179 50.2917 112.179ZM50.4707 111.125C50.9347 111.125 51.3258 111.034 51.644 110.852C51.9655 110.669 52.2074 110.434 52.3699 110.146C52.5356 109.857 52.6184 109.554 52.6184 109.236V108.162C52.5687 108.222 52.4593 108.276 52.2903 108.326C52.1246 108.372 51.9324 108.414 51.7136 108.45C51.4982 108.483 51.2877 108.513 51.0822 108.54C50.88 108.563 50.716 108.583 50.59 108.599C50.2851 108.639 50.0001 108.704 49.7349 108.793C49.4731 108.879 49.2609 109.01 49.0985 109.186C48.9395 109.358 48.8599 109.594 48.8599 109.892C48.8599 110.3 49.0107 110.608 49.3123 110.817C49.6172 111.022 50.0034 111.125 50.4707 111.125ZM59.0156 115.023C58.4489 115.023 57.9616 114.95 57.554 114.804C57.1463 114.661 56.8066 114.473 56.5348 114.237C56.2663 114.005 56.0526 113.757 55.8935 113.491L56.8281 112.835C56.9342 112.974 57.0684 113.134 57.2308 113.312C57.3932 113.495 57.6153 113.652 57.897 113.785C58.1821 113.921 58.5549 113.989 59.0156 113.989C59.6321 113.989 60.1409 113.839 60.5419 113.541C60.9429 113.243 61.1435 112.776 61.1435 112.139V110.588H61.044C60.9579 110.727 60.8352 110.9 60.6761 111.105C60.5204 111.307 60.295 111.488 60 111.647C59.7083 111.803 59.3139 111.881 58.8168 111.881C58.2003 111.881 57.6468 111.735 57.1562 111.443C56.669 111.152 56.2829 110.727 55.9979 110.17C55.7161 109.614 55.5753 108.937 55.5753 108.142C55.5753 107.36 55.7128 106.679 55.9879 106.099C56.263 105.515 56.6458 105.065 57.1364 104.746C57.6269 104.425 58.1937 104.264 58.8366 104.264C59.3338 104.264 59.7282 104.347 60.0199 104.513C60.3149 104.675 60.5402 104.861 60.696 105.07C60.8551 105.275 60.9777 105.444 61.0639 105.577H61.1832V104.364H62.3168V112.219C62.3168 112.875 62.1676 113.409 61.8693 113.82C61.5743 114.234 61.1766 114.537 60.6761 114.729C60.179 114.925 59.6255 115.023 59.0156 115.023ZM58.9759 110.827C59.4465 110.827 59.8442 110.719 60.169 110.504C60.4938 110.288 60.7408 109.978 60.9098 109.574C61.0788 109.17 61.1634 108.686 61.1634 108.122C61.1634 107.572 61.0805 107.086 60.9148 106.665C60.7491 106.245 60.5038 105.915 60.179 105.676C59.8542 105.437 59.4531 105.318 58.9759 105.318C58.4787 105.318 58.0644 105.444 57.733 105.696C57.4048 105.948 57.1579 106.286 56.9922 106.71C56.8298 107.134 56.7486 107.605 56.7486 108.122C56.7486 108.652 56.8314 109.121 56.9972 109.529C57.1662 109.933 57.4148 110.252 57.7429 110.484C58.0743 110.712 58.4853 110.827 58.9759 110.827ZM67.6662 112.159C66.9304 112.159 66.2957 111.997 65.7621 111.672C65.2318 111.344 64.8224 110.886 64.5341 110.3C64.2491 109.71 64.1065 109.024 64.1065 108.241C64.1065 107.459 64.2491 106.77 64.5341 106.173C64.8224 105.573 65.2235 105.106 65.7372 104.771C66.2543 104.433 66.8575 104.264 67.5469 104.264C67.9446 104.264 68.3374 104.33 68.7251 104.463C69.1129 104.596 69.4659 104.811 69.7841 105.109C70.1023 105.404 70.3558 105.795 70.5447 106.283C70.7337 106.77 70.8281 107.37 70.8281 108.082V108.58H64.9418V107.565H69.6349C69.6349 107.134 69.5488 106.75 69.3764 106.412C69.2074 106.074 68.9654 105.807 68.6506 105.612C68.339 105.416 67.9711 105.318 67.5469 105.318C67.0795 105.318 66.6752 105.434 66.3338 105.666C65.9957 105.895 65.7356 106.193 65.5533 106.561C65.371 106.929 65.2798 107.323 65.2798 107.744V108.42C65.2798 108.997 65.3793 109.486 65.5781 109.887C65.7803 110.285 66.0604 110.588 66.4183 110.797C66.7763 111.002 67.1922 111.105 67.6662 111.105C67.9744 111.105 68.2528 111.062 68.5014 110.976C68.7533 110.886 68.9704 110.754 69.1527 110.578C69.335 110.399 69.4759 110.177 69.5753 109.912L70.7088 110.23C70.5895 110.615 70.389 110.953 70.1072 111.244C69.8255 111.533 69.4775 111.758 69.0632 111.92C68.6489 112.08 68.1832 112.159 67.6662 112.159Z" fill="#456054" style="fill:#456054;fill:color(display-p3 0.2706 0.3765 0.3294);fill-opacity:1;"/>
<rect x="0.75" y="0.75" width="88.5" height="88.5" rx="3.25" stroke="#456054" style="stroke:#456054;stroke:color(display-p3 0.2706 0.3765 0.3294);stroke-opacity:1;" stroke-width="1.5"/>
<path d="M69.815 68.4919C68.1274 68.4919 66.4806 68.0019 65.0379 67.056C63.0781 65.7767 61.7443 63.8101 61.2612 61.5168C60.7848 59.2303 61.2271 56.8894 62.5065 54.9296C63.7858 52.9697 65.7524 51.636 68.0457 51.1528C70.3322 50.6765 72.6731 51.1188 74.6329 52.3981C76.5928 53.6775 77.9265 55.6441 78.4097 57.9374C79.3964 62.6668 76.3546 67.3078 71.6319 68.2945C71.0263 68.417 70.4275 68.4851 69.8218 68.4851L69.815 68.4919ZM69.8354 52.5683C69.3523 52.5683 68.8623 52.6159 68.3655 52.718C66.4942 53.1058 64.8814 54.2083 63.8334 55.8074C62.7855 57.4066 62.4248 59.3188 62.8127 61.197C63.2006 63.0683 64.303 64.6811 65.9021 65.7291C67.5013 66.777 69.4135 67.1377 71.2917 66.7498C75.1569 65.94 77.6475 62.1428 76.8377 58.2708C76.13 54.8956 73.1494 52.5683 69.8286 52.5683H69.8354Z" fill="#456054" style="fill:#456054;fill:color(display-p3 0.2706 0.3765 0.3294);fill-opacity:1;"/>
<path d="M69.8354 60.5301C69.4747 60.5301 69.1481 60.2783 69.0596 59.9108L61.2475 26.1378C60.7644 24.0486 58.9338 22.5924 56.7903 22.5924C55.1503 22.5924 53.6056 23.232 52.4487 24.3889L50.5025 26.3351C50.1895 26.6481 49.6859 26.6481 49.3797 26.3351C49.0666 26.0221 49.0666 25.5185 49.3797 25.2123L51.3259 23.2661C52.789 21.8098 54.7284 21 56.7971 21C59.6824 21 62.1526 22.9666 62.8059 25.7771L70.618 59.5569C70.7132 59.9857 70.4479 60.4144 70.0191 60.5096C69.9579 60.5164 69.8966 60.5233 69.8354 60.5233V60.5301Z" fill="#456054" style="fill:#456054;fill:color(display-p3 0.2706 0.3765 0.3294);fill-opacity:1;"/>
<path d="M20.758 68.4851C15.9265 68.4851 12 64.5586 12 59.7339C12 54.9092 15.9265 50.9759 20.758 50.9759C25.5895 50.9759 29.516 54.9024 29.516 59.7339C29.516 64.5654 25.5895 68.4919 20.758 68.4919V68.4851ZM20.758 52.5683C16.8111 52.5683 13.5924 55.7802 13.5924 59.7339C13.5924 63.6876 16.8043 66.8995 20.758 66.8995C24.7117 66.8995 27.9236 63.6876 27.9236 59.7339C27.9236 55.7802 24.7117 52.5683 20.758 52.5683Z" fill="#456054" style="fill:#456054;fill:color(display-p3 0.2706 0.3765 0.3294);fill-opacity:1;"/>
<path d="M20.758 60.5301C20.4858 60.5301 20.2136 60.3872 20.0707 60.1354C19.853 59.7543 19.9822 59.2711 20.3633 59.0466L34.2931 50.9555C34.6742 50.7377 35.1573 50.867 35.3819 51.2481C35.5997 51.6292 35.4704 52.1123 35.0893 52.3369L21.1595 60.428C21.037 60.5028 20.8941 60.5369 20.758 60.5369V60.5301Z" fill="#456054" style="fill:#456054;fill:color(display-p3 0.2706 0.3765 0.3294);fill-opacity:1;"/>
<path d="M53.2517 60.5301H37.9949C37.6615 60.5301 37.3689 60.3259 37.2532 60.0129L31.9453 45.9538C31.7888 45.5387 31.9998 45.0828 32.4081 44.9263C32.8232 44.7698 33.2791 44.9807 33.4356 45.389L38.5461 58.9377H52.7277L58.4915 45.3618C58.6616 44.9603 59.1312 44.7698 59.5395 44.9399C59.941 45.11 60.1315 45.5796 59.9614 45.9879L53.9934 60.0469C53.8709 60.3395 53.5783 60.5301 53.2585 60.5301H53.2517Z" fill="#456054" style="fill:#456054;fill:color(display-p3 0.2706 0.3765 0.3294);fill-opacity:1;"/>
<path d="M56.2391 52.5683H35.3478C34.9123 52.5683 34.5516 52.2144 34.5516 51.7721C34.5516 51.3298 34.9055 50.9759 35.3478 50.9759H56.2391C56.6746 50.9759 57.0352 51.3298 57.0352 51.7721C57.0352 52.2144 56.6814 52.5683 56.2391 52.5683Z" fill="#456054" style="fill:#456054;fill:color(display-p3 0.2706 0.3765 0.3294);fill-opacity:1;"/>
<path d="M71.2985 36.5221H67.3176C64.6841 36.5221 62.5405 34.3786 62.5405 31.745C62.5405 29.1115 64.6841 26.968 67.3176 26.968H71.2985C71.734 26.968 72.0947 27.3218 72.0947 27.7641V35.7191C72.0947 36.1547 71.7408 36.5153 71.2985 36.5153V36.5221ZM67.3176 28.5603C65.5619 28.5603 64.1329 29.9894 64.1329 31.745C64.1329 33.5007 65.5619 34.9298 67.3176 34.9298H70.5023V28.5603H67.3176Z" fill="#456054" style="fill:#456054;fill:color(display-p3 0.2706 0.3765 0.3294);fill-opacity:1;"/>
<path d="M66.5827 46.471H43.9698C43.5342 46.471 43.1736 46.1171 43.1736 45.6748V39.04C43.1736 35.6715 45.9092 32.9359 49.2776 32.9359H63.6906C64.1261 32.9359 64.4867 33.2898 64.4867 33.7321C64.4867 34.1744 64.1329 34.5283 63.6906 34.5283H49.2708C46.7802 34.5283 44.7591 36.5494 44.7591 39.04V44.8786H66.5759C67.0114 44.8786 67.3721 45.2325 67.3721 45.6748C67.3721 46.1103 67.0182 46.471 66.5759 46.471H66.5827Z" fill="#456054" style="fill:#456054;fill:color(display-p3 0.2706 0.3765 0.3294);fill-opacity:1;"/>
<path d="M32.0338 46.471C31.8977 46.471 31.7684 46.437 31.6527 46.3757C26.9981 43.8375 21.7379 42.4901 16.43 42.4901H12.7962C12.5852 42.4901 12.3811 42.4084 12.2314 42.2587C12.0817 42.109 12 41.9049 12 41.6939V39.7001C12 39.4891 12.0817 39.2849 12.2314 39.1352L18.1993 33.1673C18.349 33.0176 18.5532 32.9359 18.7641 32.9359H26.7191C26.8416 32.9359 26.9641 32.9631 27.073 33.0176L34.8647 36.91H44.1263C44.5618 36.91 44.9224 37.2639 44.9224 37.7062C44.9224 38.1485 44.5686 38.5024 44.1263 38.5024H34.6742C34.5517 38.5024 34.4292 38.4752 34.3203 38.4207L26.5286 34.5283H19.0908L13.5856 40.0403V40.9045H16.4232C21.9216 40.9045 27.3792 42.2791 32.2312 44.8854H43.9697C44.4053 44.8854 44.7659 45.2393 44.7659 45.6748C44.7659 46.1103 44.4121 46.471 43.9697 46.471H32.027H32.0338Z" fill="#456054" style="fill:#456054;fill:color(display-p3 0.2706 0.3765 0.3294);fill-opacity:1;"/>
<path d="M77.7972 50.4519C77.3617 50.4519 77.001 50.098 77.001 49.6557C77.001 47.7435 75.6264 46.1239 73.7414 45.8041L66.0042 44.5179C65.5687 44.4431 65.2761 44.0348 65.3509 43.6061C65.4258 43.1705 65.8341 42.8779 66.2696 42.9528L74.0068 44.2389C76.6676 44.6812 78.6002 46.9609 78.6002 49.6557C78.6002 50.0912 78.2395 50.4519 77.7972 50.4519Z" fill="#456054" style="fill:#456054;fill:color(display-p3 0.2706 0.3765 0.3294);fill-opacity:1;"/>
<path d="M12.7962 50.4519C12.3607 50.4519 12 50.0981 12 49.6557C12 46.5186 15.7291 42.6262 18.6212 41.9049L21.0914 41.2856C21.5133 41.1767 21.9489 41.4353 22.0577 41.864C22.1666 42.286 21.908 42.7215 21.4793 42.8303L19.0091 43.4496C16.7703 44.0076 13.5924 47.3148 13.5924 49.6557C13.5924 50.0913 13.2385 50.4519 12.7962 50.4519Z" fill="#456054" style="fill:#456054;fill:color(display-p3 0.2706 0.3765 0.3294);fill-opacity:1;"/>
<path d="M32.0338 46.471C31.9521 46.471 31.8637 46.4574 31.782 46.4302C31.3669 46.2941 31.1355 45.8381 31.2784 45.423L33.9324 37.4612C34.0685 37.0461 34.5244 36.8147 34.9395 36.9576C35.3546 37.0937 35.586 37.5497 35.4431 37.9648L32.7891 45.9266C32.6803 46.26 32.3672 46.471 32.0338 46.471Z" fill="#456054" style="fill:#456054;fill:color(display-p3 0.2706 0.3765 0.3294);fill-opacity:1;"/>
</svg>
