<svg width="90" height="115" viewBox="0 0 90 115" fill="none" xmlns="http://www.w3.org/2000/svg">
<path d="M30.9148 101.818H32.1477V108.56C32.1477 109.256 31.9837 109.877 31.6555 110.424C31.3307 110.968 30.8717 111.397 30.2784 111.712C29.6851 112.023 28.9891 112.179 28.1903 112.179C27.3916 112.179 26.6955 112.023 26.1023 111.712C25.509 111.397 25.0483 110.968 24.7202 110.424C24.3954 109.877 24.233 109.256 24.233 108.56V101.818H25.4659V108.46C25.4659 108.957 25.5753 109.4 25.794 109.788C26.0128 110.172 26.3243 110.475 26.7287 110.697C27.1364 110.916 27.6236 111.026 28.1903 111.026C28.7571 111.026 29.2443 110.916 29.652 110.697C30.0597 110.475 30.3712 110.172 30.5866 109.788C30.8054 109.4 30.9148 108.957 30.9148 108.46V101.818ZM34.4508 112V104.364H35.5843V105.517H35.6639C35.8031 105.139 36.055 104.833 36.4196 104.597C36.7842 104.362 37.1951 104.244 37.6525 104.244C37.7387 104.244 37.8464 104.246 37.9757 104.249C38.1049 104.253 38.2027 104.258 38.269 104.264V105.457C38.2292 105.447 38.1381 105.433 37.9956 105.413C37.8564 105.389 37.7089 105.378 37.5531 105.378C37.1819 105.378 36.8504 105.456 36.5588 105.612C36.2704 105.764 36.0417 105.976 35.8727 106.248C35.707 106.516 35.6241 106.823 35.6241 107.168V112H34.4508ZM39.8189 112V101.818H40.9922V105.577H41.0916C41.1778 105.444 41.2971 105.275 41.4496 105.07C41.6054 104.861 41.8274 104.675 42.1158 104.513C42.4074 104.347 42.8018 104.264 43.299 104.264C43.942 104.264 44.5088 104.425 44.9993 104.746C45.4898 105.068 45.8726 105.524 46.1477 106.114C46.4228 106.704 46.5604 107.4 46.5604 108.202C46.5604 109.01 46.4228 109.711 46.1477 110.305C45.8726 110.895 45.4915 111.352 45.0043 111.677C44.517 111.998 43.9553 112.159 43.3189 112.159C42.8284 112.159 42.4356 112.078 42.1406 111.915C41.8456 111.75 41.6186 111.562 41.4595 111.354C41.3004 111.142 41.1778 110.966 41.0916 110.827H40.9524V112H39.8189ZM40.9723 108.182C40.9723 108.759 41.0568 109.267 41.2259 109.708C41.3949 110.146 41.6418 110.489 41.9666 110.737C42.2914 110.982 42.6892 111.105 43.1598 111.105C43.6503 111.105 44.0597 110.976 44.3878 110.717C44.7192 110.455 44.9678 110.104 45.1335 109.663C45.3026 109.219 45.3871 108.725 45.3871 108.182C45.3871 107.645 45.3042 107.161 45.1385 106.73C44.9761 106.296 44.7292 105.953 44.3977 105.701C44.0696 105.446 43.657 105.318 43.1598 105.318C42.6825 105.318 42.2815 105.439 41.9567 105.681C41.6319 105.92 41.3866 106.254 41.2209 106.685C41.0552 107.113 40.9723 107.612 40.9723 108.182ZM50.6023 112.179C50.1184 112.179 49.6792 112.088 49.2848 111.906C48.8904 111.72 48.5772 111.453 48.3452 111.105C48.1132 110.754 47.9972 110.33 47.9972 109.832C47.9972 109.395 48.0833 109.04 48.2557 108.768C48.428 108.493 48.6584 108.278 48.9467 108.122C49.2351 107.966 49.5533 107.85 49.9013 107.774C50.2526 107.695 50.6056 107.632 50.9602 107.585C51.4242 107.526 51.8004 107.481 52.0888 107.451C52.3804 107.418 52.5926 107.363 52.7251 107.287C52.861 107.211 52.929 107.078 52.929 106.889V106.849C52.929 106.359 52.7947 105.978 52.5263 105.706C52.2611 105.434 51.8584 105.298 51.3182 105.298C50.758 105.298 50.3189 105.421 50.0007 105.666C49.6825 105.911 49.4588 106.173 49.3295 106.452L48.2159 106.054C48.4148 105.59 48.6799 105.229 49.0114 104.97C49.3461 104.708 49.7107 104.526 50.1051 104.423C50.5028 104.317 50.8939 104.264 51.2784 104.264C51.5237 104.264 51.8054 104.294 52.1236 104.354C52.4451 104.41 52.755 104.528 53.0533 104.707C53.3549 104.886 53.6051 105.156 53.804 105.517C54.0028 105.878 54.1023 106.362 54.1023 106.969V112H52.929V110.966H52.8693C52.7898 111.132 52.6572 111.309 52.4716 111.498C52.286 111.687 52.0391 111.848 51.7308 111.98C51.4226 112.113 51.0464 112.179 50.6023 112.179ZM50.7812 111.125C51.2453 111.125 51.6364 111.034 51.9545 110.852C52.276 110.669 52.518 110.434 52.6804 110.146C52.8461 109.857 52.929 109.554 52.929 109.236V108.162C52.8793 108.222 52.7699 108.276 52.6009 108.326C52.4351 108.372 52.2429 108.414 52.0241 108.45C51.8087 108.483 51.5982 108.513 51.3928 108.54C51.1906 108.563 51.0265 108.583 50.9006 108.599C50.5956 108.639 50.3106 108.704 50.0455 108.793C49.7836 108.879 49.5715 109.01 49.4091 109.186C49.25 109.358 49.1705 109.594 49.1705 109.892C49.1705 110.3 49.3213 110.608 49.6229 110.817C49.9278 111.022 50.3139 111.125 50.7812 111.125ZM56.2438 112V104.364H57.4171V112H56.2438ZM56.8404 103.091C56.6117 103.091 56.4145 103.013 56.2488 102.857C56.0864 102.701 56.0051 102.514 56.0051 102.295C56.0051 102.077 56.0864 101.889 56.2488 101.734C56.4145 101.578 56.6117 101.5 56.8404 101.5C57.0691 101.5 57.2646 101.578 57.427 101.734C57.5927 101.889 57.6756 102.077 57.6756 102.295C57.6756 102.514 57.5927 102.701 57.427 102.857C57.2646 103.013 57.0691 103.091 56.8404 103.091ZM60.7393 107.406V112H59.5661V104.364H60.6996V105.557H60.799C60.978 105.169 61.2498 104.857 61.6143 104.622C61.9789 104.384 62.4496 104.264 63.0263 104.264C63.5433 104.264 63.9957 104.37 64.3835 104.582C64.7713 104.791 65.0729 105.109 65.2884 105.537C65.5038 105.961 65.6115 106.498 65.6115 107.148V112H64.4382V107.227C64.4382 106.627 64.2824 106.16 63.9709 105.825C63.6593 105.487 63.2318 105.318 62.6882 105.318C62.3137 105.318 61.9789 105.399 61.6839 105.562C61.3923 105.724 61.1619 105.961 60.9929 106.273C60.8239 106.584 60.7393 106.962 60.7393 107.406Z" fill="#456054" style="fill:#456054;fill:color(display-p3 0.2706 0.3765 0.3294);fill-opacity:1;"/>
<rect x="0.75" y="0.75" width="88.5" height="88.5" rx="3.25" fill="#456054" stroke="#456054" style="fill:#456054;fill:color(display-p3 0.2706 0.3765 0.3294);fill-opacity:1;stroke:#456054;stroke:color(display-p3 0.2706 0.3765 0.3294);stroke-opacity:1;" stroke-width="1.5"/>
<path d="M76.0283 73.6397C75.3206 73.6397 74.6537 73.3607 74.1569 72.864L73.1702 71.8772C67.8623 66.5762 65.3104 58.9478 66.1543 50.952C66.8348 44.5621 64.8341 38.5057 60.6694 34.341L55.3139 28.9923C51.1493 24.8277 45.0861 22.8338 38.6894 23.5143C30.6868 24.365 23.0584 21.8063 17.7505 16.512L16.7638 15.5253C16.267 15.0285 15.988 14.3617 15.988 13.6539C15.988 12.9462 16.267 12.2793 16.7638 11.7758C17.7982 10.7414 19.479 10.7414 20.5133 11.7758L21.5001 12.7625C25.6647 16.9271 31.7279 18.921 38.1314 18.2473C46.134 17.3967 53.7624 19.9485 59.0703 25.2496L64.4258 30.5983C69.7337 35.8994 72.2855 43.5277 71.4417 51.5236C70.7612 57.9134 72.7619 63.9699 76.9265 68.1345L77.9132 69.1212C78.41 69.618 78.689 70.2849 78.689 70.9926C78.689 71.7003 78.41 72.3672 77.9132 72.8708C77.4097 73.3675 76.7428 73.6465 76.0351 73.6465L76.0283 73.6397ZM41.1256 21.7859C47.0255 21.7859 52.5035 23.9362 56.4368 27.8627L61.7923 33.2114C66.2972 37.7163 68.4679 44.2423 67.733 51.1153C66.9368 58.628 69.3254 65.78 74.2862 70.7408L75.2729 71.7275C75.4703 71.9249 75.7356 72.0406 76.0215 72.0406C76.3073 72.0406 76.5727 71.9317 76.77 71.7275C76.9674 71.5302 77.083 71.258 77.083 70.979C77.083 70.7 76.9742 70.4278 76.77 70.2304L75.7833 69.2437C71.2784 64.7388 69.1076 58.2129 69.8426 51.3398C70.6387 43.8272 68.2502 36.6683 63.2894 31.7143L57.9339 26.3656C52.973 21.4048 45.8074 19.0231 38.2879 19.8192C37.4101 19.9145 36.539 19.9553 35.6748 19.9553C29.7749 19.9553 24.2969 17.805 20.3636 13.8785L19.3769 12.8918C18.9618 12.4767 18.2881 12.4767 17.8798 12.8918C17.6825 13.0891 17.5668 13.3613 17.5668 13.6403C17.5668 13.9193 17.6757 14.1915 17.8798 14.3889L18.8665 15.3756C23.8274 20.3364 30.9862 22.7182 38.5125 21.922C39.3903 21.8267 40.2614 21.7859 41.1256 21.7859Z" fill="#F9F2E8" style="fill:#F9F2E8;fill:color(display-p3 0.9765 0.9490 0.9098);fill-opacity:1;"/>
<path d="M30.4418 59.9821C30.2309 59.9821 30.0267 59.9005 29.877 59.7508C29.7205 59.5942 29.6389 59.3833 29.6457 59.1587L30.8774 22.5412C30.891 22.1057 31.2584 21.7586 31.7008 21.7722C32.1363 21.7858 32.4833 22.1533 32.4697 22.5956L31.2652 58.3625L67.0594 57.1581C67.4949 57.1445 67.8692 57.4847 67.8828 57.927C67.8964 58.3625 67.5561 58.7368 67.1138 58.7504L30.4691 59.9821C30.4691 59.9821 30.4555 59.9821 30.4418 59.9821Z" fill="#F9F2E8" style="fill:#F9F2E8;fill:color(display-p3 0.9765 0.9490 0.9098);fill-opacity:1;"/>
<path d="M13.8649 76.5455C13.6607 76.5455 13.4566 76.4706 13.3001 76.3141C12.9871 76.0011 12.9871 75.4975 13.3001 75.1913L71.3124 17.2266C71.6255 16.9136 72.129 16.9136 72.4352 17.2266C72.7483 17.5396 72.7483 18.0432 72.4352 18.3494L14.4229 76.3141C14.2664 76.4706 14.0622 76.5455 13.8581 76.5455H13.8649Z" fill="#F9F2E8" style="fill:#F9F2E8;fill:color(display-p3 0.9765 0.9490 0.9098);fill-opacity:1;"/>
<path d="M21.7723 78.6142C21.3367 78.6142 20.9761 78.2604 20.9761 77.818V68.6654H11.7962C11.3607 68.6654 11 68.3047 11 67.8692C11 67.4337 11.3539 67.073 11.7962 67.073H21.7723C22.2078 67.073 22.5684 67.4269 22.5684 67.8692V77.818C22.5684 78.2536 22.2146 78.6142 21.7723 78.6142Z" fill="#F9F2E8" style="fill:#F9F2E8;fill:color(display-p3 0.9765 0.9490 0.9098);fill-opacity:1;"/>
<path d="M29.7273 72.6462C29.2918 72.6462 28.9311 72.2923 28.9311 71.85V60.7034H17.7846C17.3491 60.7034 16.9884 60.3496 16.9884 59.9073C16.9884 59.4649 17.3423 59.1111 17.7846 59.1111H29.7205C30.156 59.1111 30.5167 59.4649 30.5167 59.9073V71.8432C30.5167 72.2787 30.1628 72.6394 29.7205 72.6394L29.7273 72.6462Z" fill="#F9F2E8" style="fill:#F9F2E8;fill:color(display-p3 0.9765 0.9490 0.9098);fill-opacity:1;"/>
<path d="M71.8773 28.9311C71.4418 28.9311 71.0811 28.5773 71.0811 28.1349V18.5808H61.5134C61.0778 18.5808 60.7172 18.2269 60.7172 17.7846C60.7172 17.3423 61.071 16.9884 61.5134 16.9884H71.8705C72.306 16.9884 72.6667 17.3423 72.6667 17.7846V28.1349C72.6667 28.5705 72.3128 28.9311 71.8773 28.9311Z" fill="#F9F2E8" style="fill:#F9F2E8;fill:color(display-p3 0.9765 0.9490 0.9098);fill-opacity:1;"/>
</svg>
